<svg xmlns="http://www.w3.org/2000/svg" viewBox="0 0 4547.35 6509" width="4547.35" height="6509" role="img" aria-label="A UML sequence diagram of round: 86 messages between agent: Agent, runner: LangGraphRunner, screen: ScreenStep, registry: Registry, dispatch, route: RouteStep, chat_model: OpenRouterChatModel, focus: FocusStep, pause: Answered, work: TakeStep, model: ModelStep, on_text: TextSink, decided, router: Router, gate: GateStep, approve: Answered, tools: ToolStep, running_in, Inside, collecting, tool_runtime: ToolRuntime, read_untrusted, Read, told, used, opening, answer: AnswerStep. Generated by scripts/gen_turn_maps.py.">
  <style>
    text { font: 13px/1.4 -apple-system, "Segoe UI", Roboto, sans-serif; fill: #202124 }
    .role { font-weight: 600 }
    .kind { font-size: 11.5px; fill: #5f6368 }
    .head { fill: #f2f8fd; stroke: #2b7fc4; stroke-width: 1.4 }
    .life { stroke: #9aa0a6; stroke-width: 1.1; stroke-dasharray: 5 5 }
    .bar { fill: #ffffff; stroke: #2b7fc4; stroke-width: 1.1 }
    .send { stroke: #202124; stroke-width: 1.3; fill: none; marker-end: url(#sent) }
    .back { stroke: #6b7280; stroke-width: 1.1; fill: none;
            stroke-dasharray: 6 4; marker-end: url(#answered) }
    .said { font-size: 12.5px }
    .sheet { fill: #f8f9fa; stroke: none }
    .answer { font-size: 11.5px; fill: #6b7280; font-style: italic }
    .frame { fill: none; stroke: #9aa0a6; stroke-width: 1.1 }
    .tab { fill: #f8f9fa; stroke: #9aa0a6; stroke-width: 1.1 }
    .operator { font-size: 11px; font-weight: 600; fill: #5f6368;
                letter-spacing: .03em }
    .guard { font-size: 11.5px; fill: #14425f; font-style: italic }
    .split { stroke: #9aa0a6; stroke-width: 1; stroke-dasharray: 4 4; fill: none }
    @media (prefers-color-scheme: dark) {
      text { fill: #e8eaed }
      .kind { fill: #9aa0a6 }
      .head { fill: #10283a; stroke: #6fb6ea }
      .bar { fill: #303134; stroke: #6fb6ea }
      .send { stroke: #e8eaed }
      .sheet { fill: #2b2c2f }
      .back { stroke: #bdc1c6 }
      .answer { fill: #bdc1c6 }
      .frame, .split { stroke: #bdc1c6 }
      .tab { fill: #2b2c2f; stroke: #bdc1c6 }
      .operator { fill: #bdc1c6 }
      .guard { fill: #cfe6f7 }
    }
  </style>
  <defs><marker id="sent" viewBox="0 0 10 10" refX="9" refY="5" markerWidth="8" markerHeight="8" orient="auto-start-reverse"><path d="M 0 1 L 9 5 L 0 9 z" fill="context-stroke"/></marker><marker id="answered" viewBox="0 0 10 10" refX="9" refY="5" markerWidth="9" markerHeight="9" orient="auto-start-reverse"><path d="M 0 1 L 9 5 L 0 9" fill="none" stroke="context-stroke" stroke-width="1.4"/></marker></defs>
  <rect x="48" y="692" width="4451.35" height="359" rx="2" class="frame"/>
  <rect x="48" y="692" width="41.14" height="19" rx="2" class="tab"/>
  <text x="58" y="706" class="operator" text-anchor="start">alt</text>
  <text x="101.14" y="725" class="guard" text-anchor="start">[chat_model is None]</text>
  <path d="M 48 737 L 4499.35 737" class="split"/>
  <text x="101.14" y="751" class="guard" text-anchor="start">[else]</text>
  <rect x="39" y="573" width="4469.35" height="510" rx="2" class="frame"/>
  <rect x="39" y="573" width="41.14" height="19" rx="2" class="tab"/>
  <text x="49" y="587" class="operator" text-anchor="start">alt</text>
  <text x="92.14" y="606" class="guard" text-anchor="start">[not available]</text>
  <path d="M 39 618 L 4508.35 618" class="split"/>
  <text x="92.14" y="632" class="guard" text-anchor="start">[else]</text>
  <rect x="30" y="500" width="4487.35" height="615" rx="2" class="frame"/>
  <rect x="30" y="500" width="41.14" height="19" rx="2" class="tab"/>
  <text x="40" y="514" class="operator" text-anchor="start">alt</text>
  <text x="83.14" y="533" class="guard" text-anchor="start">[len(available) == 1]</text>
  <path d="M 30 545 L 4517.35 545" class="split"/>
  <text x="83.14" y="559" class="guard" text-anchor="start">[else]</text>
  <rect x="21" y="427" width="4505.35" height="720" rx="2" class="frame"/>
  <rect x="21" y="427" width="41.14" height="19" rx="2" class="tab"/>
  <text x="31" y="441" class="operator" text-anchor="start">alt</text>
  <text x="74.14" y="460" class="guard" text-anchor="start">[named]</text>
  <path d="M 21 472 L 4526.35 472" class="split"/>
  <text x="74.14" y="486" class="guard" text-anchor="start">[else]</text>
  <rect x="12" y="354" width="4523.35" height="825" rx="2" class="frame"/>
  <rect x="12" y="354" width="41.14" height="19" rx="2" class="tab"/>
  <text x="22" y="368" class="operator" text-anchor="start">alt</text>
  <text x="65.14" y="387" class="guard" text-anchor="start">[pinned]</text>
  <path d="M 12 399 L 4535.35 399" class="split"/>
  <text x="65.14" y="413" class="guard" text-anchor="start">[else]</text>
  <rect x="12" y="1267" width="4523.35" height="861" rx="2" class="frame"/>
  <rect x="12" y="1267" width="41.14" height="19" rx="2" class="tab"/>
  <text x="22" y="1281" class="operator" text-anchor="start">alt</text>
  <text x="65.14" y="1300" class="guard" text-anchor="start">[contested]</text>
  <path d="M 12 1814 L 4535.35 1814" class="split"/>
  <text x="65.14" y="1828" class="guard" text-anchor="start">[else]</text>
  <rect x="30" y="2778" width="4487.35" height="177" rx="2" class="frame"/>
  <rect x="30" y="2778" width="41.14" height="19" rx="2" class="tab"/>
  <text x="40" y="2792" class="operator" text-anchor="start">alt</text>
  <text x="83.14" y="2811" class="guard" text-anchor="start">[_claimed(scopes)]</text>
  <path d="M 30 2869 L 4517.35 2869" class="split"/>
  <text x="83.14" y="2883" class="guard" text-anchor="start">[else]</text>
  <rect x="30" y="3077" width="4487.35" height="93" rx="2" class="frame"/>
  <rect x="30" y="3077" width="41.14" height="19" rx="2" class="tab"/>
  <text x="40" y="3091" class="operator" text-anchor="start">alt</text>
  <text x="83.14" y="3110" class="guard" text-anchor="start">[not reply.is_final and reply.text]</text>
  <rect x="39" y="3605" width="4469.35" height="177" rx="2" class="frame"/>
  <rect x="39" y="3605" width="41.14" height="19" rx="2" class="tab"/>
  <text x="49" y="3619" class="operator" text-anchor="start">alt</text>
  <text x="92.14" y="3638" class="guard" text-anchor="start">[_claimed(scopes)]</text>
  <path d="M 39 3696 L 4508.35 3696" class="split"/>
  <text x="92.14" y="3710" class="guard" text-anchor="start">[else]</text>
  <rect x="39" y="3882" width="4469.35" height="127" rx="2" class="frame"/>
  <rect x="39" y="3882" width="47.52" height="19" rx="2" class="tab"/>
  <text x="49" y="3896" class="operator" text-anchor="start">loop</text>
  <text x="98.52" y="3915" class="guard" text-anchor="start">[calls]</text>
  <rect x="39" y="4075" width="4469.35" height="127" rx="2" class="frame"/>
  <rect x="39" y="4075" width="47.52" height="19" rx="2" class="tab"/>
  <text x="49" y="4089" class="operator" text-anchor="start">loop</text>
  <text x="98.52" y="4108" class="guard" text-anchor="start">[_effecting(outstanding, offered)]</text>
  <rect x="48" y="4577" width="4451.35" height="93" rx="2" class="frame"/>
  <rect x="48" y="4577" width="53.9" height="19" rx="2" class="tab"/>
  <text x="58" y="4591" class="operator" text-anchor="start">break</text>
  <text x="113.9" y="4610" class="guard" text-anchor="start">[ToolRefusal]</text>
  <rect x="48" y="4884" width="4451.35" height="177" rx="2" class="frame"/>
  <rect x="48" y="4884" width="41.14" height="19" rx="2" class="tab"/>
  <text x="58" y="4898" class="operator" text-anchor="start">alt</text>
  <text x="101.14" y="4917" class="guard" text-anchor="start">[_claimed(scopes)]</text>
  <path d="M 48 4975 L 4499.35 4975" class="split"/>
  <text x="101.14" y="4989" class="guard" text-anchor="start">[else]</text>
  <rect x="66" y="5269" width="4415.35" height="93" rx="2" class="frame"/>
  <rect x="66" y="5269" width="41.14" height="19" rx="2" class="tab"/>
  <text x="76" y="5283" class="operator" text-anchor="start">alt</text>
  <text x="119.14" y="5302" class="guard" text-anchor="start">[tool.untrusted]</text>
  <rect x="57" y="5222" width="4433.35" height="172" rx="2" class="frame"/>
  <rect x="57" y="5222" width="53.9" height="19" rx="2" class="tab"/>
  <text x="67" y="5236" class="operator" text-anchor="start">break</text>
  <text x="122.9" y="5255" class="guard" text-anchor="start">[ToolRefusal]</text>
  <rect x="66" y="5487" width="4415.35" height="93" rx="2" class="frame"/>
  <rect x="66" y="5487" width="41.14" height="19" rx="2" class="tab"/>
  <text x="76" y="5501" class="operator" text-anchor="start">alt</text>
  <text x="119.14" y="5520" class="guard" text-anchor="start">[tool.untrusted or isinstance(payload, Citable)]</text>
  <rect x="57" y="5414" width="4433.35" height="198" rx="2" class="frame"/>
  <rect x="57" y="5414" width="41.14" height="19" rx="2" class="tab"/>
  <text x="67" y="5428" class="operator" text-anchor="start">alt</text>
  <text x="110.14" y="5447" class="guard" text-anchor="start">[payload is None]</text>
  <path d="M 57 5459 L 4490.35 5459" class="split"/>
  <text x="110.14" y="5473" class="guard" text-anchor="start">[else]</text>
  <rect x="48" y="5115" width="4451.35" height="529" rx="2" class="frame"/>
  <rect x="48" y="5115" width="41.14" height="19" rx="2" class="tab"/>
  <text x="58" y="5129" class="operator" text-anchor="start">alt</text>
  <text x="101.14" y="5148" class="guard" text-anchor="start">[tool is None]</text>
  <path d="M 48 5160 L 4499.35 5160" class="split"/>
  <text x="101.14" y="5174" class="guard" text-anchor="start">[else]</text>
  <rect x="48" y="5778" width="4451.35" height="221" rx="2" class="frame"/>
  <rect x="48" y="5778" width="41.14" height="19" rx="2" class="tab"/>
  <text x="58" y="5792" class="operator" text-anchor="start">alt</text>
  <text x="101.14" y="5811" class="guard" text-anchor="start">[citable is None]</text>
  <path d="M 48 5891 L 4499.35 5891" class="split"/>
  <text x="101.14" y="5905" class="guard" text-anchor="start">[else]</text>
  <rect x="39" y="4370" width="4469.35" height="1729" rx="2" class="frame"/>
  <rect x="39" y="4370" width="47.52" height="19" rx="2" class="tab"/>
  <text x="49" y="4384" class="operator" text-anchor="start">loop</text>
  <text x="98.52" y="4403" class="guard" text-anchor="start">[_requested_calls(state)]</text>
  <rect x="30" y="3326" width="4487.35" height="2839" rx="2" class="frame"/>
  <rect x="30" y="3326" width="41.14" height="19" rx="2" class="tab"/>
  <text x="40" y="3340" class="operator" text-anchor="start">alt</text>
  <text x="83.14" y="3359" class="guard" text-anchor="start">[done]</text>
  <path d="M 30 3371 L 4517.35 3371" class="split"/>
  <text x="83.14" y="3385" class="guard" text-anchor="start">[tools]</text>
  <rect x="21" y="2479" width="4505.35" height="3718" rx="2" class="frame"/>
  <rect x="21" y="2479" width="47.52" height="19" rx="2" class="tab"/>
  <text x="31" y="2493" class="operator" text-anchor="start">loop</text>
  <text x="80.52" y="2512" class="guard" text-anchor="start">[router(state) != "done"]</text>
  <rect x="12" y="2432" width="4523.35" height="3797" rx="2" class="frame"/>
  <rect x="12" y="2432" width="41.14" height="19" rx="2" class="tab"/>
  <text x="22" y="2446" class="operator" text-anchor="start">alt</text>
  <text x="65.14" y="2465" class="guard" text-anchor="start">[opening(state) == "rounds"]</text>
  <rect x="24" y="24" width="79.47" height="46" rx="3" class="head"/>
  <text x="63.735" y="44" class="role" text-anchor="middle">agent</text>
  <text x="63.735" y="60" class="kind" text-anchor="middle">: Agent</text>
  <path d="M 63.735 70 L 63.735 6499" class="life"/>
  <rect x="229.45" y="24" width="141.57" height="46" rx="3" class="head"/>
  <text x="300.235" y="44" class="role" text-anchor="middle">runner</text>
  <text x="300.235" y="60" class="kind" text-anchor="middle">: LangGraphRunner</text>
  <path d="M 300.235 70 L 300.235 6499" class="life"/>
  <rect x="401.02" y="24" width="110.52" height="46" rx="3" class="head"/>
  <text x="456.28" y="44" class="role" text-anchor="middle">screen</text>
  <text x="456.28" y="60" class="kind" text-anchor="middle">: ScreenStep</text>
  <path d="M 456.28 70 L 456.28 6499" class="life"/>
  <rect x="650.355" y="24" width="98.1" height="46" rx="3" class="head"/>
  <text x="699.405" y="44" class="role" text-anchor="middle">registry</text>
  <text x="699.405" y="60" class="kind" text-anchor="middle">: Registry</text>
  <path d="M 699.405 70 L 699.405 6499" class="life"/>
  <rect x="894.37" y="24" width="96.32" height="46" rx="3" class="head"/>
  <text x="942.53" y="44" class="role" text-anchor="middle">dispatch</text>
  <path d="M 942.53 70 L 942.53 6499" class="life"/>
  <rect x="1025.46" y="24" width="104.31" height="46" rx="3" class="head"/>
  <text x="1077.61" y="44" class="role" text-anchor="middle">route</text>
  <text x="1077.61" y="60" class="kind" text-anchor="middle">: RouteStep</text>
  <path d="M 1077.61 70 L 1077.61 6499" class="life"/>
  <rect x="1216.41" y="24" width="166.41" height="46" rx="3" class="head"/>
  <text x="1299.61" y="44" class="role" text-anchor="middle">chat_model</text>
  <text x="1299.61" y="60" class="kind" text-anchor="middle">: OpenRouterChatModel</text>
  <path d="M 1299.61 70 L 1299.61 6499" class="life"/>
  <rect x="1412.82" y="24" width="104.31" height="46" rx="3" class="head"/>
  <text x="1464.97" y="44" class="role" text-anchor="middle">focus</text>
  <text x="1464.97" y="60" class="kind" text-anchor="middle">: FocusStep</text>
  <path d="M 1464.97 70 L 1464.97 6499" class="life"/>
  <rect x="1658.17" y="24" width="98.1" height="46" rx="3" class="head"/>
  <text x="1707.22" y="44" class="role" text-anchor="middle">pause</text>
  <text x="1707.22" y="60" class="kind" text-anchor="middle">: Answered</text>
  <path d="M 1707.22 70 L 1707.22 6499" class="life"/>
  <rect x="1786.27" y="24" width="98.1" height="46" rx="3" class="head"/>
  <text x="1835.32" y="44" class="role" text-anchor="middle">work</text>
  <text x="1835.32" y="60" class="kind" text-anchor="middle">: TakeStep</text>
  <path d="M 1835.32 70 L 1835.32 6499" class="life"/>
  <rect x="1914.37" y="24" width="104.31" height="46" rx="3" class="head"/>
  <text x="1966.53" y="44" class="role" text-anchor="middle">model</text>
  <text x="1966.53" y="60" class="kind" text-anchor="middle">: ModelStep</text>
  <path d="M 1966.53 70 L 1966.53 6499" class="life"/>
  <rect x="2078.73" y="24" width="98.1" height="46" rx="3" class="head"/>
  <text x="2127.78" y="44" class="role" text-anchor="middle">on_text</text>
  <text x="2127.78" y="60" class="kind" text-anchor="middle">: TextSink</text>
  <path d="M 2127.78 70 L 2127.78 6499" class="life"/>
  <rect x="2206.83" y="24" width="88.78" height="46" rx="3" class="head"/>
  <text x="2251.22" y="44" class="role" text-anchor="middle">decided</text>
  <path d="M 2251.22 70 L 2251.22 6499" class="life"/>
  <rect x="2325.61" y="24" width="85.68" height="46" rx="3" class="head"/>
  <text x="2368.45" y="44" class="role" text-anchor="middle">router</text>
  <text x="2368.45" y="60" class="kind" text-anchor="middle">: Router</text>
  <path d="M 2368.45 70 L 2368.45 6499" class="life"/>
  <rect x="2441.29" y="24" width="98.1" height="46" rx="3" class="head"/>
  <text x="2490.34" y="44" class="role" text-anchor="middle">gate</text>
  <text x="2490.34" y="60" class="kind" text-anchor="middle">: GateStep</text>
  <path d="M 2490.34 70 L 2490.34 6499" class="life"/>
  <rect x="2886.04" y="24" width="98.1" height="46" rx="3" class="head"/>
  <text x="2935.09" y="44" class="role" text-anchor="middle">approve</text>
  <text x="2935.09" y="60" class="kind" text-anchor="middle">: Answered</text>
  <path d="M 2935.09 70 L 2935.09 6499" class="life"/>
  <rect x="3014.14" y="24" width="98.1" height="46" rx="3" class="head"/>
  <text x="3063.19" y="44" class="role" text-anchor="middle">tools</text>
  <text x="3063.19" y="60" class="kind" text-anchor="middle">: ToolStep</text>
  <path d="M 3063.19 70 L 3063.19 6499" class="life"/>
  <rect x="3283.49" y="24" width="111.4" height="46" rx="3" class="head"/>
  <text x="3339.19" y="44" class="role" text-anchor="middle">running_in</text>
  <path d="M 3339.19 70 L 3339.19 6499" class="life"/>
  <rect x="3424.89" y="24" width="81.24" height="46" rx="3" class="head"/>
  <text x="3465.51" y="44" class="role" text-anchor="middle">Inside</text>
  <path d="M 3465.51 70 L 3465.51 6499" class="life"/>
  <rect x="3536.13" y="24" width="111.4" height="46" rx="3" class="head"/>
  <text x="3591.83" y="44" class="role" text-anchor="middle">collecting</text>
  <path d="M 3591.83 70 L 3591.83 6499" class="life"/>
  <rect x="3677.53" y="24" width="126.48" height="46" rx="3" class="head"/>
  <text x="3740.77" y="44" class="role" text-anchor="middle">tool_runtime</text>
  <text x="3740.77" y="60" class="kind" text-anchor="middle">: ToolRuntime</text>
  <path d="M 3740.77 70 L 3740.77 6499" class="life"/>
  <rect x="3834.01" y="24" width="141.56" height="46" rx="3" class="head"/>
  <text x="3904.79" y="44" class="role" text-anchor="middle">read_untrusted</text>
  <path d="M 3904.79 70 L 3904.79 6499" class="life"/>
  <rect x="4005.57" y="24" width="66.16" height="46" rx="3" class="head"/>
  <text x="4038.65" y="44" class="role" text-anchor="middle">Read</text>
  <path d="M 4038.65 70 L 4038.65 6499" class="life"/>
  <rect x="4101.73" y="24" width="66.16" height="46" rx="3" class="head"/>
  <text x="4134.81" y="44" class="role" text-anchor="middle">told</text>
  <path d="M 4134.81 70 L 4134.81 6499" class="life"/>
  <rect x="4197.89" y="24" width="66.16" height="46" rx="3" class="head"/>
  <text x="4230.97" y="44" class="role" text-anchor="middle">used</text>
  <path d="M 4230.97 70 L 4230.97 6499" class="life"/>
  <rect x="4294.05" y="24" width="88.78" height="46" rx="3" class="head"/>
  <text x="4338.44" y="44" class="role" text-anchor="middle">opening</text>
  <path d="M 4338.44 70 L 4338.44 6499" class="life"/>
  <rect x="4412.83" y="24" width="110.52" height="46" rx="3" class="head"/>
  <text x="4468.09" y="44" class="role" text-anchor="middle">answer</text>
  <text x="4468.09" y="60" class="kind" text-anchor="middle">: AnswerStep</text>
  <path d="M 4468.09 70 L 4468.09 6499" class="life"/>
  <rect x="451.28" y="138" width="10" height="148" rx="1" class="bar"/>
  <rect x="694.405" y="811" width="10" height="80" rx="1" class="bar"/>
  <rect x="1294.61" y="925" width="10" height="34" rx="1" class="bar"/>
  <rect x="1072.61" y="320" width="10" height="879" rx="1" class="bar"/>
  <rect x="694.405" y="1360" width="10" height="80" rx="1" class="bar"/>
  <rect x="1702.22" y="1474" width="10" height="34" rx="1" class="bar"/>
  <rect x="694.405" y="1588" width="10" height="80" rx="1" class="bar"/>
  <rect x="694.405" y="1888" width="10" height="80" rx="1" class="bar"/>
  <rect x="1459.97" y="1233" width="10" height="915" rx="1" class="bar"/>
  <rect x="1830.32" y="2182" width="10" height="148" rx="1" class="bar"/>
  <rect x="4333.44" y="2364" width="10" height="34" rx="1" class="bar"/>
  <rect x="694.405" y="2652" width="10" height="323" rx="1" class="bar"/>
  <rect x="1294.61" y="3009" width="10" height="34" rx="1" class="bar"/>
  <rect x="1961.53" y="2526" width="10" height="698" rx="1" class="bar"/>
  <rect x="2363.45" y="3258" width="10" height="34" rx="1" class="bar"/>
  <rect x="694.405" y="3479" width="10" height="323" rx="1" class="bar"/>
  <rect x="2930.09" y="3929" width="10" height="34" rx="1" class="bar"/>
  <rect x="2930.09" y="4122" width="10" height="34" rx="1" class="bar"/>
  <rect x="2485.34" y="3399" width="10" height="823" rx="1" class="bar"/>
  <rect x="694.405" y="4758" width="10" height="323" rx="1" class="bar"/>
  <rect x="4033.65" y="5825" width="10" height="34" rx="1" class="bar"/>
  <rect x="4033.65" y="5919" width="10" height="34" rx="1" class="bar"/>
  <rect x="3058.19" y="4256" width="10" height="1863" rx="1" class="bar"/>
  <rect x="937.53" y="6363" width="10" height="34" rx="1" class="bar"/>
  <rect x="4463.09" y="6249" width="10" height="182" rx="1" class="bar"/>
  <rect x="295.235" y="104" width="10" height="6361" rx="1" class="bar"/>
  <rect x="694.405" y="172" width="10" height="14" rx="1" class="bar"/>
  <rect x="694.405" y="206" width="10" height="14" rx="1" class="bar"/>
  <rect x="937.53" y="252" width="10" height="14" rx="1" class="bar"/>
  <rect x="1072.61" y="646" width="10" height="14" rx="1" class="bar"/>
  <rect x="1072.61" y="765" width="10" height="14" rx="1" class="bar"/>
  <rect x="694.405" y="845" width="10" height="14" rx="1" class="bar"/>
  <rect x="1072.61" y="993" width="10" height="14" rx="1" class="bar"/>
  <rect x="1459.97" y="1314" width="10" height="14" rx="1" class="bar"/>
  <rect x="694.405" y="1394" width="10" height="14" rx="1" class="bar"/>
  <rect x="1459.97" y="1542" width="10" height="14" rx="1" class="bar"/>
  <rect x="694.405" y="1622" width="10" height="14" rx="1" class="bar"/>
  <rect x="694.405" y="1702" width="10" height="14" rx="1" class="bar"/>
  <rect x="694.405" y="1736" width="10" height="14" rx="1" class="bar"/>
  <rect x="937.53" y="1782" width="10" height="14" rx="1" class="bar"/>
  <rect x="1459.97" y="1842" width="10" height="14" rx="1" class="bar"/>
  <rect x="694.405" y="1922" width="10" height="14" rx="1" class="bar"/>
  <rect x="694.405" y="2002" width="10" height="14" rx="1" class="bar"/>
  <rect x="694.405" y="2036" width="10" height="14" rx="1" class="bar"/>
  <rect x="937.53" y="2082" width="10" height="14" rx="1" class="bar"/>
  <rect x="694.405" y="2216" width="10" height="14" rx="1" class="bar"/>
  <rect x="694.405" y="2250" width="10" height="14" rx="1" class="bar"/>
  <rect x="937.53" y="2296" width="10" height="14" rx="1" class="bar"/>
  <rect x="1961.53" y="2560" width="10" height="14" rx="1" class="bar"/>
  <rect x="1961.53" y="2606" width="10" height="14" rx="1" class="bar"/>
  <rect x="694.405" y="2686" width="10" height="14" rx="1" class="bar"/>
  <rect x="694.405" y="2732" width="10" height="14" rx="1" class="bar"/>
  <rect x="694.405" y="2825" width="10" height="14" rx="1" class="bar"/>
  <rect x="694.405" y="2897" width="10" height="14" rx="1" class="bar"/>
  <rect x="2122.78" y="3124" width="10" height="14" rx="1" class="bar"/>
  <rect x="2246.22" y="3190" width="10" height="14" rx="1" class="bar"/>
  <rect x="2485.34" y="3433" width="10" height="14" rx="1" class="bar"/>
  <rect x="694.405" y="3513" width="10" height="14" rx="1" class="bar"/>
  <rect x="694.405" y="3559" width="10" height="14" rx="1" class="bar"/>
  <rect x="694.405" y="3652" width="10" height="14" rx="1" class="bar"/>
  <rect x="694.405" y="3724" width="10" height="14" rx="1" class="bar"/>
  <rect x="2485.34" y="3836" width="10" height="14" rx="1" class="bar"/>
  <rect x="2485.34" y="4029" width="10" height="14" rx="1" class="bar"/>
  <rect x="3334.19" y="4290" width="10" height="14" rx="1" class="bar"/>
  <rect x="3058.19" y="4324" width="10" height="14" rx="1" class="bar"/>
  <rect x="3058.19" y="4417" width="10" height="14" rx="1" class="bar"/>
  <rect x="694.405" y="4463" width="10" height="14" rx="1" class="bar"/>
  <rect x="694.405" y="4497" width="10" height="14" rx="1" class="bar"/>
  <rect x="937.53" y="4543" width="10" height="14" rx="1" class="bar"/>
  <rect x="3460.51" y="4624" width="10" height="14" rx="1" class="bar"/>
  <rect x="3586.83" y="4690" width="10" height="14" rx="1" class="bar"/>
  <rect x="3735.77" y="4724" width="10" height="14" rx="1" class="bar"/>
  <rect x="694.405" y="4792" width="10" height="14" rx="1" class="bar"/>
  <rect x="694.405" y="4838" width="10" height="14" rx="1" class="bar"/>
  <rect x="694.405" y="4931" width="10" height="14" rx="1" class="bar"/>
  <rect x="694.405" y="5003" width="10" height="14" rx="1" class="bar"/>
  <rect x="3334.19" y="5188" width="10" height="14" rx="1" class="bar"/>
  <rect x="3899.79" y="5316" width="10" height="14" rx="1" class="bar"/>
  <rect x="3899.79" y="5534" width="10" height="14" rx="1" class="bar"/>
  <rect x="694.405" y="5664" width="10" height="14" rx="1" class="bar"/>
  <rect x="694.405" y="5698" width="10" height="14" rx="1" class="bar"/>
  <rect x="937.53" y="5744" width="10" height="14" rx="1" class="bar"/>
  <rect x="4129.81" y="6019" width="10" height="14" rx="1" class="bar"/>
  <rect x="4225.97" y="6053" width="10" height="14" rx="1" class="bar"/>
  <rect x="694.405" y="6283" width="10" height="14" rx="1" class="bar"/>
  <rect x="694.405" y="6317" width="10" height="14" rx="1" class="bar"/>
  <path d="M 68.735 104 L 295.235 104" class="send"/>
  <text x="181.985" y="97" class="said" text-anchor="middle">run(state, thread_id, on_text)</text>
  <path d="M 305.235 138 L 451.28 138" class="send"/>
  <text x="378.258" y="131" class="said" text-anchor="middle">screen(state)</text>
  <path d="M 461.28 172 L 694.405 172" class="send"/>
  <text x="577.843" y="165" class="said" text-anchor="middle">handlers(SCREENING, scoped(…))</text>
  <path d="M 704.405 206 L 730.405 206 L 730.405 224 L 709.405 224" class="send"/>
  <text x="740.405" y="211" class="said" text-anchor="start">_of(HANDLER)</text>
  <path d="M 461.28 252 L 937.53 252" class="send"/>
  <rect x="468.28" y="233" width="462.25" height="16" rx="2" class="sheet"/>
  <text x="699.405" y="245" class="said" text-anchor="middle">dispatch(SCREENING, question, handlers(…), trace, _pinned_field(…))</text>
  <path d="M 451.28 286 L 305.235 286" class="back"/>
  <text x="378.258" y="279" class="answer" text-anchor="middle">AgentState</text>
  <path d="M 305.235 320 L 1072.61 320" class="send"/>
  <rect x="643.424" y="301" width="91" height="16" rx="2" class="sheet"/>
  <text x="688.924" y="313" class="said" text-anchor="middle">route(state)</text>
  <path d="M 1082.61 646 L 1108.61 646 L 1108.61 664 L 1087.61 664" class="send"/>
  <text x="1118.61" y="651" class="said" text-anchor="start">_read(state['question'])</text>
  <path d="M 1082.61 765 L 1108.61 765 L 1108.61 783 L 1087.61 783" class="send"/>
  <text x="1118.61" y="770" class="said" text-anchor="start">_asking(question)</text>
  <path d="M 1072.61 811 L 704.405 811" class="send"/>
  <text x="888.509" y="804" class="said" text-anchor="middle">outline(scope)</text>
  <path d="M 704.405 845 L 730.405 845 L 730.405 863 L 709.405 863" class="send"/>
  <text x="740.405" y="850" class="said" text-anchor="start">_of(INSTRUCTIONS)</text>
  <path d="M 704.405 891 L 1072.61 891" class="back"/>
  <text x="888.509" y="884" class="answer" text-anchor="middle">listed</text>
  <path d="M 1082.61 925 L 1294.61 925" class="send"/>
  <text x="1188.61" y="918" class="said" text-anchor="middle">complete(_asking(…), )</text>
  <path d="M 1294.61 959 L 1082.61 959" class="back"/>
  <text x="1188.61" y="952" class="answer" text-anchor="middle">said</text>
  <path d="M 1082.61 993 L 1108.61 993 L 1108.61 1011 L 1087.61 1011" class="send"/>
  <text x="1118.61" y="998" class="said" text-anchor="start">_named(said)</text>
  <path d="M 1072.61 1199 L 305.235 1199" class="back"/>
  <rect x="650.174" y="1180" width="77.5" height="16" rx="2" class="sheet"/>
  <text x="688.924" y="1192" class="answer" text-anchor="middle">AgentState</text>
  <path d="M 305.235 1233 L 1459.97 1233" class="send"/>
  <text x="882.604" y="1226" class="said" text-anchor="middle">focus(state)</text>
  <path d="M 1469.97 1314 L 1495.97 1314 L 1495.97 1332 L 1474.97 1332" class="send"/>
  <text x="1505.97" y="1319" class="said" text-anchor="start">_asked(contested)</text>
  <path d="M 1459.97 1360 L 704.405 1360" class="send"/>
  <rect x="1029.94" y="1341" width="104.5" height="16" rx="2" class="sheet"/>
  <text x="1082.19" y="1353" class="said" text-anchor="middle">outline(scope)</text>
  <path d="M 704.405 1394 L 730.405 1394 L 730.405 1412 L 709.405 1412" class="send"/>
  <text x="740.405" y="1399" class="said" text-anchor="start">_of(INSTRUCTIONS)</text>
  <path d="M 704.405 1440 L 1459.97 1440" class="back"/>
  <rect x="1063.69" y="1421" width="37" height="16" rx="2" class="sheet"/>
  <text x="1082.19" y="1433" class="answer" text-anchor="middle">fork</text>
  <path d="M 1469.97 1474 L 1702.22 1474" class="send"/>
  <text x="1586.1" y="1467" class="said" text-anchor="middle">pause(fork)</text>
  <path d="M 1702.22 1508 L 1469.97 1508" class="back"/>
  <text x="1586.1" y="1501" class="answer" text-anchor="middle">chosen</text>
  <path d="M 1469.97 1542 L 1495.97 1542 L 1495.97 1560 L 1474.97 1560" class="send"/>
  <text x="1505.97" y="1547" class="said" text-anchor="start">_brief(frozenset(…), trace)</text>
  <path d="M 1459.97 1588 L 704.405 1588" class="send"/>
  <rect x="1009.69" y="1569" width="145" height="16" rx="2" class="sheet"/>
  <text x="1082.19" y="1581" class="said" text-anchor="middle">instructions(scopes)</text>
  <path d="M 704.405 1622 L 730.405 1622 L 730.405 1640 L 709.405 1640" class="send"/>
  <text x="740.405" y="1627" class="said" text-anchor="start">_of(INSTRUCTIONS)</text>
  <path d="M 704.405 1668 L 1459.97 1668" class="back"/>
  <rect x="1036.69" y="1649" width="91" height="16" rx="2" class="sheet"/>
  <text x="1082.19" y="1661" class="answer" text-anchor="middle">instructions</text>
  <path d="M 1459.97 1702 L 704.405 1702" class="send"/>
  <rect x="989.439" y="1683" width="185.5" height="16" rx="2" class="sheet"/>
  <text x="1082.19" y="1695" class="said" text-anchor="middle">handlers(BRIEFING, scopes)</text>
  <path d="M 704.405 1736 L 730.405 1736 L 730.405 1754 L 709.405 1754" class="send"/>
  <text x="740.405" y="1741" class="said" text-anchor="start">_of(HANDLER)</text>
  <path d="M 1459.97 1782 L 947.53 1782" class="send"/>
  <rect x="1013.13" y="1763" width="381.25" height="16" rx="2" class="sheet"/>
  <text x="1203.75" y="1775" class="said" text-anchor="middle">dispatch(BRIEFING, join(…), handlers(…), trace, scopes)</text>
  <path d="M 1469.97 1842 L 1495.97 1842 L 1495.97 1860 L 1474.97 1860" class="send"/>
  <text x="1505.97" y="1847" class="said" text-anchor="start">_brief(scoped(…), written)</text>
  <path d="M 1459.97 1888 L 704.405 1888" class="send"/>
  <rect x="1009.69" y="1869" width="145" height="16" rx="2" class="sheet"/>
  <text x="1082.19" y="1881" class="said" text-anchor="middle">instructions(scopes)</text>
  <path d="M 704.405 1922 L 730.405 1922 L 730.405 1940 L 709.405 1940" class="send"/>
  <text x="740.405" y="1927" class="said" text-anchor="start">_of(INSTRUCTIONS)</text>
  <path d="M 704.405 1968 L 1459.97 1968" class="back"/>
  <rect x="1036.69" y="1949" width="91" height="16" rx="2" class="sheet"/>
  <text x="1082.19" y="1961" class="answer" text-anchor="middle">instructions</text>
  <path d="M 1459.97 2002 L 704.405 2002" class="send"/>
  <rect x="989.439" y="1983" width="185.5" height="16" rx="2" class="sheet"/>
  <text x="1082.19" y="1995" class="said" text-anchor="middle">handlers(BRIEFING, scopes)</text>
  <path d="M 704.405 2036 L 730.405 2036 L 730.405 2054 L 709.405 2054" class="send"/>
  <text x="740.405" y="2041" class="said" text-anchor="start">_of(HANDLER)</text>
  <path d="M 1459.97 2082 L 947.53 2082" class="send"/>
  <rect x="1013.13" y="2063" width="381.25" height="16" rx="2" class="sheet"/>
  <text x="1203.75" y="2075" class="said" text-anchor="middle">dispatch(BRIEFING, join(…), handlers(…), trace, scopes)</text>
  <path d="M 1459.97 2148 L 305.235 2148" class="back"/>
  <text x="882.604" y="2141" class="answer" text-anchor="middle">AgentState</text>
  <path d="M 305.235 2182 L 1830.32 2182" class="send"/>
  <rect x="1025.65" y="2163" width="84.25" height="16" rx="2" class="sheet"/>
  <text x="1067.78" y="2175" class="said" text-anchor="middle">work(state)</text>
  <path d="M 1830.32 2216 L 704.405 2216" class="send"/>
  <rect x="1181.36" y="2197" width="172" height="16" rx="2" class="sheet"/>
  <text x="1267.36" y="2209" class="said" text-anchor="middle">handlers(TAKING, scopes)</text>
  <path d="M 704.405 2250 L 730.405 2250 L 730.405 2268 L 709.405 2268" class="send"/>
  <text x="740.405" y="2255" class="said" text-anchor="start">_of(HANDLER)</text>
  <path d="M 1830.32 2296 L 947.53 2296" class="send"/>
  <rect x="1171.3" y="2277" width="435.25" height="16" rx="2" class="sheet"/>
  <text x="1388.93" y="2289" class="said" text-anchor="middle">dispatch(TAKING, state['question'], handlers(…), trace, scopes)</text>
  <path d="M 1830.32 2330 L 305.235 2330" class="back"/>
  <rect x="1029.03" y="2311" width="77.5" height="16" rx="2" class="sheet"/>
  <text x="1067.78" y="2323" class="answer" text-anchor="middle">AgentState</text>
  <path d="M 305.235 2364 L 4333.44 2364" class="send"/>
  <rect x="2267.09" y="2345" width="104.5" height="16" rx="2" class="sheet"/>
  <text x="2319.34" y="2357" class="said" text-anchor="middle">opening(state)</text>
  <path d="M 4333.44 2398 L 305.235 2398" class="back"/>
  <text x="2319.34" y="2391" class="answer" text-anchor="middle">rounds | done</text>
  <path d="M 305.235 2526 L 1961.53 2526" class="send"/>
  <text x="1133.38" y="2519" class="said" text-anchor="middle">model(state)</text>
  <path d="M 1971.53 2560 L 1997.53 2560 L 1997.53 2578 L 1976.53 2578" class="send"/>
  <text x="2007.53" y="2565" class="said" text-anchor="start">_prompt(state)</text>
  <path d="M 1971.53 2606 L 1997.53 2606 L 1997.53 2624 L 1976.53 2624" class="send"/>
  <text x="2007.53" y="2611" class="said" text-anchor="start">_offered(state)</text>
  <path d="M 1961.53 2652 L 704.405 2652" class="send"/>
  <rect x="1240.22" y="2633" width="185.5" height="16" rx="2" class="sheet"/>
  <text x="1332.97" y="2645" class="said" text-anchor="middle">offering(tools, scoped(…))</text>
  <path d="M 704.405 2686 L 730.405 2686 L 730.405 2704 L 709.405 2704" class="send"/>
  <text x="740.405" y="2691" class="said" text-anchor="start">_claimed(scopes)</text>
  <path d="M 704.405 2732 L 730.405 2732 L 730.405 2750 L 709.405 2750" class="send"/>
  <text x="740.405" y="2737" class="said" text-anchor="start">_of(FILES)</text>
  <path d="M 704.405 2825 L 730.405 2825 L 730.405 2843 L 709.405 2843" class="send"/>
  <text x="740.405" y="2830" class="said" text-anchor="start">tools(scopes)</text>
  <path d="M 704.405 2897 L 730.405 2897 L 730.405 2915 L 709.405 2915" class="send"/>
  <text x="740.405" y="2902" class="said" text-anchor="start">tools(scopes)</text>
  <path d="M 704.405 2975 L 1961.53 2975" class="back"/>
  <rect x="1273.97" y="2956" width="118" height="16" rx="2" class="sheet"/>
  <text x="1332.97" y="2968" class="answer" text-anchor="middle">tuple[Tool, ...]</text>
  <path d="M 1961.53 3009 L 1304.61 3009" class="send"/>
  <rect x="1486.32" y="2990" width="293.5" height="16" rx="2" class="sheet"/>
  <text x="1633.07" y="3002" class="said" text-anchor="middle">complete(_prompt(…), _offered(…), on_text)</text>
  <path d="M 1304.61 3043 L 1961.53 3043" class="back"/>
  <text x="1633.07" y="3036" class="answer" text-anchor="middle">reply</text>
  <path d="M 1971.53 3124 L 2122.78 3124" class="send"/>
  <text x="2047.15" y="3117" class="said" text-anchor="middle">on_text(Aside(…))</text>
  <path d="M 1971.53 3190 L 2246.22 3190" class="send"/>
  <rect x="2056.62" y="3171" width="104.5" height="16" rx="2" class="sheet"/>
  <text x="2108.87" y="3183" class="said" text-anchor="middle">decided(reply)</text>
  <path d="M 1961.53 3224 L 305.235 3224" class="back"/>
  <text x="1133.38" y="3217" class="answer" text-anchor="middle">AgentState</text>
  <path d="M 305.235 3258 L 2363.45 3258" class="send"/>
  <rect x="1285.47" y="3239" width="97.75" height="16" rx="2" class="sheet"/>
  <text x="1334.34" y="3251" class="said" text-anchor="middle">router(state)</text>
  <path d="M 2363.45 3292 L 305.235 3292" class="back"/>
  <rect x="1288.84" y="3273" width="91" height="16" rx="2" class="sheet"/>
  <text x="1334.34" y="3285" class="answer" text-anchor="middle">done | tools</text>
  <path d="M 305.235 3399 L 2485.34 3399" class="send"/>
  <text x="1395.29" y="3392" class="said" text-anchor="middle">gate(state)</text>
  <path d="M 2495.34 3433 L 2521.34 3433 L 2521.34 3451 L 2500.34 3451" class="send"/>
  <text x="2531.34" y="3438" class="said" text-anchor="start">_offered(state)</text>
  <path d="M 2485.34 3479 L 704.405 3479" class="send"/>
  <text x="1594.87" y="3472" class="said" text-anchor="middle">offering(tools, scoped(…))</text>
  <path d="M 704.405 3513 L 730.405 3513 L 730.405 3531 L 709.405 3531" class="send"/>
  <text x="740.405" y="3518" class="said" text-anchor="start">_claimed(scopes)</text>
  <path d="M 704.405 3559 L 730.405 3559 L 730.405 3577 L 709.405 3577" class="send"/>
  <text x="740.405" y="3564" class="said" text-anchor="start">_of(FILES)</text>
  <path d="M 704.405 3652 L 730.405 3652 L 730.405 3670 L 709.405 3670" class="send"/>
  <text x="740.405" y="3657" class="said" text-anchor="start">tools(scopes)</text>
  <path d="M 704.405 3724 L 730.405 3724 L 730.405 3742 L 709.405 3742" class="send"/>
  <text x="740.405" y="3729" class="said" text-anchor="start">tools(scopes)</text>
  <path d="M 704.405 3802 L 2485.34 3802" class="back"/>
  <text x="1594.87" y="3795" class="answer" text-anchor="middle">tuple[Tool, ...]</text>
  <path d="M 2495.34 3836 L 2521.34 3836 L 2521.34 3854 L 2500.34 3854" class="send"/>
  <text x="2531.34" y="3841" class="said" text-anchor="start">_asked_for(_requested_calls(…), offered, messages, trace)</text>
  <path d="M 2495.34 3929 L 2930.09 3929" class="send"/>
  <text x="2712.71" y="3922" class="said" text-anchor="middle">approve(card)</text>
  <path d="M 2930.09 3963 L 2495.34 3963" class="back"/>
  <text x="2712.71" y="3956" class="answer" text-anchor="middle">answer</text>
  <path d="M 2495.34 4029 L 2521.34 4029 L 2521.34 4047 L 2500.34 4047" class="send"/>
  <text x="2531.34" y="4034" class="said" text-anchor="start">_effecting(outstanding, offered)</text>
  <path d="M 2495.34 4122 L 2930.09 4122" class="send"/>
  <text x="2712.71" y="4115" class="said" text-anchor="middle">approve(proposed)</text>
  <path d="M 2930.09 4156 L 2495.34 4156" class="back"/>
  <text x="2712.71" y="4149" class="answer" text-anchor="middle">approved</text>
  <path d="M 2485.34 4222 L 305.235 4222" class="back"/>
  <text x="1395.29" y="4215" class="answer" text-anchor="middle">AgentState</text>
  <path d="M 305.235 4256 L 3058.19 4256" class="send"/>
  <rect x="1636.21" y="4237" width="91" height="16" rx="2" class="sheet"/>
  <text x="1681.71" y="4249" class="said" text-anchor="middle">tools(state)</text>
  <path d="M 3068.19 4290 L 3334.19 4290" class="send"/>
  <text x="3201.19" y="4283" class="said" text-anchor="middle">running_in(scopes)</text>
  <path d="M 3068.19 4324 L 3094.19 4324 L 3094.19 4342 L 3073.19 4342" class="send"/>
  <text x="3104.19" y="4329" class="said" text-anchor="start">_round(state, scopes)</text>
  <path d="M 3068.19 4417 L 3094.19 4417 L 3094.19 4435 L 3073.19 4435" class="send"/>
  <text x="3104.19" y="4422" class="said" text-anchor="start">_ran(call, scopes, trace, after)</text>
  <path d="M 3058.19 4463 L 704.405 4463" class="send"/>
  <rect x="1791.92" y="4444" width="178.75" height="16" rx="2" class="sheet"/>
  <text x="1881.3" y="4456" class="said" text-anchor="middle">handlers(CALLING, scopes)</text>
  <path d="M 704.405 4497 L 730.405 4497 L 730.405 4515 L 709.405 4515" class="send"/>
  <text x="740.405" y="4502" class="said" text-anchor="start">_of(HANDLER)</text>
  <path d="M 3058.19 4543 L 947.53 4543" class="send"/>
  <rect x="1812.23" y="4524" width="381.25" height="16" rx="2" class="sheet"/>
  <text x="2002.86" y="4536" class="said" text-anchor="middle">dispatch(CALLING, checked, handlers(…), before, scopes)</text>
  <path d="M 3068.19 4624 L 3460.51 4624" class="send"/>
  <text x="3264.35" y="4617" class="said" text-anchor="middle">Inside()</text>
  <path d="M 3068.19 4690 L 3586.83 4690" class="send"/>
  <rect x="3282.01" y="4671" width="91" height="16" rx="2" class="sheet"/>
  <text x="3327.51" y="4683" class="said" text-anchor="middle">collecting()</text>
  <path d="M 3068.19 4724 L 3735.77 4724" class="send"/>
  <rect x="3326.1" y="4705" width="151.75" height="16" rx="2" class="sheet"/>
  <text x="3401.98" y="4717" class="said" text-anchor="middle">execute(call, scopes)</text>
  <path d="M 3735.77 4758 L 704.405 4758" class="send"/>
  <rect x="2137.46" y="4739" width="165.25" height="16" rx="2" class="sheet"/>
  <text x="2220.09" y="4751" class="said" text-anchor="middle">offering(tools, scopes)</text>
  <path d="M 704.405 4792 L 730.405 4792 L 730.405 4810 L 709.405 4810" class="send"/>
  <text x="740.405" y="4797" class="said" text-anchor="start">_claimed(scopes)</text>
  <path d="M 704.405 4838 L 730.405 4838 L 730.405 4856 L 709.405 4856" class="send"/>
  <text x="740.405" y="4843" class="said" text-anchor="start">_of(FILES)</text>
  <path d="M 704.405 4931 L 730.405 4931 L 730.405 4949 L 709.405 4949" class="send"/>
  <text x="740.405" y="4936" class="said" text-anchor="start">tools(scopes)</text>
  <path d="M 704.405 5003 L 730.405 5003 L 730.405 5021 L 709.405 5021" class="send"/>
  <text x="740.405" y="5008" class="said" text-anchor="start">tools(scopes)</text>
  <path d="M 704.405 5081 L 3735.77 5081" class="back"/>
  <text x="2220.09" y="5074" class="answer" text-anchor="middle">offered</text>
  <path d="M 3735.77 5188 L 3344.19 5188" class="send"/>
  <rect x="3474.23" y="5169" width="131.5" height="16" rx="2" class="sheet"/>
  <text x="3539.98" y="5181" class="said" text-anchor="middle">running_in(scopes)</text>
  <path d="M 3745.77 5316 L 3899.79 5316" class="send"/>
  <text x="3822.78" y="5309" class="said" text-anchor="middle">read_untrusted()</text>
  <path d="M 3745.77 5534 L 3899.79 5534" class="send"/>
  <text x="3822.78" y="5527" class="said" text-anchor="middle">read_untrusted()</text>
  <path d="M 3058.19 5664 L 704.405 5664" class="send"/>
  <rect x="1785.17" y="5645" width="192.25" height="16" rx="2" class="sheet"/>
  <text x="1881.3" y="5657" class="said" text-anchor="middle">handlers(RETURNING, scopes)</text>
  <path d="M 704.405 5698 L 730.405 5698 L 730.405 5716 L 709.405 5716" class="send"/>
  <text x="740.405" y="5703" class="said" text-anchor="start">_of(HANDLER)</text>
  <path d="M 3058.19 5744 L 947.53 5744" class="send"/>
  <rect x="1812.23" y="5725" width="381.25" height="16" rx="2" class="sheet"/>
  <text x="2002.86" y="5737" class="said" text-anchor="middle">dispatch(RETURNING, result, handlers(…), after, scopes)</text>
  <path d="M 3068.19 5825 L 4033.65 5825" class="send"/>
  <rect x="3319.79" y="5806" width="462.25" height="16" rx="2" class="sheet"/>
  <text x="3550.92" y="5818" class="said" text-anchor="middle">Read(body=render(…), outcome=render(…), untrusted=inside.untrusted)</text>
  <path d="M 4033.65 5859 L 3068.19 5859" class="back"/>
  <text x="3550.92" y="5852" class="answer" text-anchor="middle">read</text>
  <path d="M 3068.19 5919 L 4033.65 5919" class="send"/>
  <rect x="3329.92" y="5900" width="442" height="16" rx="2" class="sheet"/>
  <text x="3550.92" y="5912" class="said" text-anchor="middle">Read(body=context.text, outcome=citable.summary, untrusted=True)</text>
  <path d="M 4033.65 5953 L 3068.19 5953" class="back"/>
  <text x="3550.92" y="5946" class="answer" text-anchor="middle">read</text>
  <path d="M 3068.19 6019 L 4129.81 6019" class="send"/>
  <rect x="3533.25" y="6000" width="131.5" height="16" rx="2" class="sheet"/>
  <text x="3599" y="6012" class="said" text-anchor="middle">told(result, read)</text>
  <path d="M 3068.19 6053 L 4225.97 6053" class="send"/>
  <rect x="3527.33" y="6034" width="239.5" height="16" rx="2" class="sheet"/>
  <text x="3647.08" y="6046" class="said" text-anchor="middle">used(call, result, read, tuple(…))</text>
  <path d="M 3058.19 6119 L 305.235 6119" class="back"/>
  <rect x="1642.96" y="6100" width="77.5" height="16" rx="2" class="sheet"/>
  <text x="1681.71" y="6112" class="answer" text-anchor="middle">AgentState</text>
  <path d="M 305.235 6249 L 4463.09 6249" class="send"/>
  <rect x="2335.29" y="6230" width="97.75" height="16" rx="2" class="sheet"/>
  <text x="2384.16" y="6242" class="said" text-anchor="middle">answer(state)</text>
  <path d="M 4463.09 6283 L 704.405 6283" class="send"/>
  <rect x="2487.62" y="6264" width="192.25" height="16" rx="2" class="sheet"/>
  <text x="2583.75" y="6276" class="said" text-anchor="middle">handlers(ANSWERING, scopes)</text>
  <path d="M 704.405 6317 L 730.405 6317 L 730.405 6335 L 709.405 6335" class="send"/>
  <text x="740.405" y="6322" class="said" text-anchor="start">_of(HANDLER)</text>
  <path d="M 4463.09 6363 L 947.53 6363" class="send"/>
  <text x="2705.31" y="6356" class="said" text-anchor="middle">dispatch(ANSWERING, settled, handlers(…), trace, scopes)</text>
  <path d="M 947.53 6397 L 4463.09 6397" class="back"/>
  <text x="2705.31" y="6390" class="answer" text-anchor="middle">answer</text>
  <path d="M 4463.09 6431 L 305.235 6431" class="back"/>
  <rect x="2345.41" y="6412" width="77.5" height="16" rx="2" class="sheet"/>
  <text x="2384.16" y="6424" class="answer" text-anchor="middle">AgentState</text>
  <path d="M 295.235 6465 L 68.735 6465" class="back"/>
  <text x="181.985" y="6458" class="answer" text-anchor="middle">Iterator[AgentState]</text>
</svg>
