<svg xmlns="http://www.w3.org/2000/svg" viewBox="0 0 3212.68 2728" width="3212.68" height="2728" role="img" aria-label="A UML sequence diagram of round: 31 messages between agent: Agent, runner: LangGraphRunner, screen: ScreenStep, rule: ValidationRule, memory: SqliteStoreMemory, work: Named, model: ModelStep, chat_model: OpenRouterChatModel, on_text: TextSink, decided, router: Router, tools: ToolStep, collecting, tool_runtime: ToolRuntime, Read, told, used, ask: AskStep, decision_from, pause: Pause, answer: AnswerStep. Generated by scripts/gen_session_maps.py.">
  <style>
    text { font: 13px/1.4 -apple-system, "Segoe UI", Roboto, sans-serif; fill: #202124 }
    .role { font-weight: 600 }
    .kind { font-size: 11.5px; fill: #5f6368 }
    .head { fill: #f2f8fd; stroke: #2b7fc4; stroke-width: 1.4 }
    .life { stroke: #9aa0a6; stroke-width: 1.1; stroke-dasharray: 5 5 }
    .bar { fill: #ffffff; stroke: #2b7fc4; stroke-width: 1.1 }
    .send { stroke: #202124; stroke-width: 1.3; fill: none; marker-end: url(#sent) }
    .back { stroke: #6b7280; stroke-width: 1.1; fill: none;
            stroke-dasharray: 6 4; marker-end: url(#answered) }
    .said { font-size: 12.5px }
    .sheet { fill: #f8f9fa; stroke: none }
    .answer { font-size: 11.5px; fill: #6b7280; font-style: italic }
    .frame { fill: none; stroke: #9aa0a6; stroke-width: 1.1 }
    .tab { fill: #f8f9fa; stroke: #9aa0a6; stroke-width: 1.1 }
    .operator { font-size: 11px; font-weight: 600; fill: #5f6368;
                letter-spacing: .03em }
    .guard { font-size: 11.5px; fill: #14425f; font-style: italic }
    .split { stroke: #9aa0a6; stroke-width: 1; stroke-dasharray: 4 4; fill: none }
    @media (prefers-color-scheme: dark) {
      text { fill: #e8eaed }
      .kind { fill: #9aa0a6 }
      .head { fill: #10283a; stroke: #6fb6ea }
      .bar { fill: #303134; stroke: #6fb6ea }
      .send { stroke: #e8eaed }
      .sheet { fill: #2b2c2f }
      .back { stroke: #bdc1c6 }
      .answer { fill: #bdc1c6 }
      .frame, .split { stroke: #bdc1c6 }
      .tab { fill: #2b2c2f; stroke: #bdc1c6 }
      .operator { fill: #bdc1c6 }
      .guard { fill: #cfe6f7 }
    }
  </style>
  <defs><marker id="sent" viewBox="0 0 10 10" refX="9" refY="5" markerWidth="8" markerHeight="8" orient="auto-start-reverse"><path d="M 0 1 L 9 5 L 0 9 z" fill="context-stroke"/></marker><marker id="answered" viewBox="0 0 10 10" refX="9" refY="5" markerWidth="9" markerHeight="9" orient="auto-start-reverse"><path d="M 0 1 L 9 5 L 0 9" fill="none" stroke="context-stroke" stroke-width="1.4"/></marker></defs>
  <rect x="12" y="172" width="3188.68" height="93" rx="2" class="frame"/>
  <rect x="12" y="172" width="47.52" height="19" rx="2" class="tab"/>
  <text x="22" y="186" class="operator" text-anchor="start">loop</text>
  <text x="71.52" y="205" class="guard" text-anchor="start">[rules]</text>
  <rect x="12" y="377" width="3188.68" height="153" rx="2" class="frame"/>
  <rect x="12" y="377" width="41.14" height="19" rx="2" class="tab"/>
  <text x="22" y="391" class="operator" text-anchor="start">alt</text>
  <text x="65.14" y="410" class="guard" text-anchor="start">[memory is None]</text>
  <path d="M 12 422 L 3200.68 422" class="split"/>
  <text x="65.14" y="436" class="guard" text-anchor="start">[else]</text>
  <rect x="21" y="847" width="3170.68" height="93" rx="2" class="frame"/>
  <rect x="21" y="847" width="41.14" height="19" rx="2" class="tab"/>
  <text x="31" y="861" class="operator" text-anchor="start">alt</text>
  <text x="74.14" y="880" class="guard" text-anchor="start">[not reply.is_final and reply.text]</text>
  <rect x="39" y="1318" width="3134.68" height="221" rx="2" class="frame"/>
  <rect x="39" y="1318" width="41.14" height="19" rx="2" class="tab"/>
  <text x="49" y="1332" class="operator" text-anchor="start">alt</text>
  <text x="92.14" y="1351" class="guard" text-anchor="start">[citable is None]</text>
  <path d="M 39 1431 L 3173.68 1431" class="split"/>
  <text x="92.14" y="1445" class="guard" text-anchor="start">[else]</text>
  <rect x="30" y="1203" width="3152.68" height="436" rx="2" class="frame"/>
  <rect x="30" y="1203" width="47.52" height="19" rx="2" class="tab"/>
  <text x="40" y="1217" class="operator" text-anchor="start">loop</text>
  <text x="89.52" y="1236" class="guard" text-anchor="start">[_requested_calls(state)]</text>
  <rect x="30" y="1753" width="3152.68" height="221" rx="2" class="frame"/>
  <rect x="30" y="1753" width="41.14" height="19" rx="2" class="tab"/>
  <text x="40" y="1767" class="operator" text-anchor="start">alt</text>
  <text x="83.14" y="1786" class="guard" text-anchor="start">[call is None]</text>
  <path d="M 30 1798 L 3182.68 1798" class="split"/>
  <text x="83.14" y="1812" class="guard" text-anchor="start">[else]</text>
  <rect x="39" y="2177" width="3134.68" height="221" rx="2" class="frame"/>
  <rect x="39" y="2177" width="41.14" height="19" rx="2" class="tab"/>
  <text x="49" y="2191" class="operator" text-anchor="start">alt</text>
  <text x="92.14" y="2210" class="guard" text-anchor="start">[citable is None]</text>
  <path d="M 39 2290 L 3173.68 2290" class="split"/>
  <text x="92.14" y="2304" class="guard" text-anchor="start">[else]</text>
  <rect x="30" y="2062" width="3152.68" height="436" rx="2" class="frame"/>
  <rect x="30" y="2062" width="47.52" height="19" rx="2" class="tab"/>
  <text x="40" y="2076" class="operator" text-anchor="start">loop</text>
  <text x="89.52" y="2095" class="guard" text-anchor="start">[_requested_calls(state)]</text>
  <rect x="21" y="1096" width="3170.68" height="1468" rx="2" class="frame"/>
  <rect x="21" y="1096" width="41.14" height="19" rx="2" class="tab"/>
  <text x="31" y="1110" class="operator" text-anchor="start">alt</text>
  <text x="74.14" y="1129" class="guard" text-anchor="start">[done]</text>
  <path d="M 21 1141 L 3191.68 1141" class="split"/>
  <text x="74.14" y="1155" class="guard" text-anchor="start">[tools]</text>
  <path d="M 21 1691 L 3191.68 1691" class="split"/>
  <text x="74.14" y="1705" class="guard" text-anchor="start">[ask]</text>
  <rect x="12" y="652" width="3188.68" height="1944" rx="2" class="frame"/>
  <rect x="12" y="652" width="47.52" height="19" rx="2" class="tab"/>
  <text x="22" y="666" class="operator" text-anchor="start">loop</text>
  <text x="71.52" y="685" class="guard" text-anchor="start">[router(state) != "done"]</text>
  <rect x="24" y="24" width="79.47" height="46" rx="3" class="head"/>
  <text x="63.735" y="44" class="role" text-anchor="middle">agent</text>
  <text x="63.735" y="60" class="kind" text-anchor="middle">: Agent</text>
  <path d="M 63.735 70 L 63.735 2718" class="life"/>
  <rect x="229.45" y="24" width="141.57" height="46" rx="3" class="head"/>
  <text x="300.235" y="44" class="role" text-anchor="middle">runner</text>
  <text x="300.235" y="60" class="kind" text-anchor="middle">: LangGraphRunner</text>
  <path d="M 300.235 70 L 300.235 2718" class="life"/>
  <rect x="401.02" y="24" width="110.52" height="46" rx="3" class="head"/>
  <text x="456.28" y="44" class="role" text-anchor="middle">screen</text>
  <text x="456.28" y="60" class="kind" text-anchor="middle">: ScreenStep</text>
  <path d="M 456.28 70 L 456.28 2718" class="life"/>
  <rect x="541.54" y="24" width="135.36" height="46" rx="3" class="head"/>
  <text x="609.22" y="44" class="role" text-anchor="middle">rule</text>
  <text x="609.22" y="60" class="kind" text-anchor="middle">: ValidationRule</text>
  <path d="M 609.22 70 L 609.22 2718" class="life"/>
  <rect x="706.9" y="24" width="153.99" height="46" rx="3" class="head"/>
  <text x="783.895" y="44" class="role" text-anchor="middle">memory</text>
  <text x="783.895" y="60" class="kind" text-anchor="middle">: SqliteStoreMemory</text>
  <path d="M 783.895 70 L 783.895 2718" class="life"/>
  <rect x="890.89" y="24" width="79.47" height="46" rx="3" class="head"/>
  <text x="930.625" y="44" class="role" text-anchor="middle">work</text>
  <text x="930.625" y="60" class="kind" text-anchor="middle">: Named</text>
  <path d="M 930.625 70 L 930.625 2718" class="life"/>
  <rect x="1000.36" y="24" width="104.31" height="46" rx="3" class="head"/>
  <text x="1052.52" y="44" class="role" text-anchor="middle">model</text>
  <text x="1052.52" y="60" class="kind" text-anchor="middle">: ModelStep</text>
  <path d="M 1052.52 70 L 1052.52 2718" class="life"/>
  <rect x="1246.31" y="24" width="166.41" height="46" rx="3" class="head"/>
  <text x="1329.52" y="44" class="role" text-anchor="middle">chat_model</text>
  <text x="1329.52" y="60" class="kind" text-anchor="middle">: OpenRouterChatModel</text>
  <path d="M 1329.52 70 L 1329.52 2718" class="life"/>
  <rect x="1442.72" y="24" width="98.1" height="46" rx="3" class="head"/>
  <text x="1491.77" y="44" class="role" text-anchor="middle">on_text</text>
  <text x="1491.77" y="60" class="kind" text-anchor="middle">: TextSink</text>
  <path d="M 1491.77 70 L 1491.77 2718" class="life"/>
  <rect x="1570.82" y="24" width="88.78" height="46" rx="3" class="head"/>
  <text x="1615.21" y="44" class="role" text-anchor="middle">decided</text>
  <path d="M 1615.21 70 L 1615.21 2718" class="life"/>
  <rect x="1689.6" y="24" width="85.68" height="46" rx="3" class="head"/>
  <text x="1732.44" y="44" class="role" text-anchor="middle">router</text>
  <text x="1732.44" y="60" class="kind" text-anchor="middle">: Router</text>
  <path d="M 1732.44 70 L 1732.44 2718" class="life"/>
  <rect x="1805.28" y="24" width="98.1" height="46" rx="3" class="head"/>
  <text x="1854.33" y="44" class="role" text-anchor="middle">tools</text>
  <text x="1854.33" y="60" class="kind" text-anchor="middle">: ToolStep</text>
  <path d="M 1854.33 70 L 1854.33 2718" class="life"/>
  <rect x="1960.71" y="24" width="111.4" height="46" rx="3" class="head"/>
  <text x="2016.41" y="44" class="role" text-anchor="middle">collecting</text>
  <path d="M 2016.41 70 L 2016.41 2718" class="life"/>
  <rect x="2115.26" y="24" width="126.48" height="46" rx="3" class="head"/>
  <text x="2178.5" y="44" class="role" text-anchor="middle">tool_runtime</text>
  <text x="2178.5" y="60" class="kind" text-anchor="middle">: ToolRuntime</text>
  <path d="M 2178.5 70 L 2178.5 2718" class="life"/>
  <rect x="2307.5" y="24" width="66.16" height="46" rx="3" class="head"/>
  <text x="2340.58" y="44" class="role" text-anchor="middle">Read</text>
  <path d="M 2340.58 70 L 2340.58 2718" class="life"/>
  <rect x="2403.66" y="24" width="66.16" height="46" rx="3" class="head"/>
  <text x="2436.74" y="44" class="role" text-anchor="middle">told</text>
  <path d="M 2436.74 70 L 2436.74 2718" class="life"/>
  <rect x="2499.82" y="24" width="66.16" height="46" rx="3" class="head"/>
  <text x="2532.9" y="44" class="role" text-anchor="middle">used</text>
  <path d="M 2532.9 70 L 2532.9 2718" class="life"/>
  <rect x="2595.98" y="24" width="91.89" height="46" rx="3" class="head"/>
  <text x="2641.93" y="44" class="role" text-anchor="middle">ask</text>
  <text x="2641.93" y="60" class="kind" text-anchor="middle">: AskStep</text>
  <path d="M 2641.93 70 L 2641.93 2718" class="life"/>
  <rect x="2804.66" y="24" width="134.02" height="46" rx="3" class="head"/>
  <text x="2871.68" y="44" class="role" text-anchor="middle">decision_from</text>
  <path d="M 2871.68 70 L 2871.68 2718" class="life"/>
  <rect x="2968.68" y="24" width="79.47" height="46" rx="3" class="head"/>
  <text x="3008.42" y="44" class="role" text-anchor="middle">pause</text>
  <text x="3008.42" y="60" class="kind" text-anchor="middle">: Pause</text>
  <path d="M 3008.42 70 L 3008.42 2718" class="life"/>
  <rect x="3078.15" y="24" width="110.52" height="46" rx="3" class="head"/>
  <text x="3133.41" y="44" class="role" text-anchor="middle">answer</text>
  <text x="3133.41" y="60" class="kind" text-anchor="middle">: AnswerStep</text>
  <path d="M 3133.41 70 L 3133.41 2718" class="life"/>
  <rect x="778.895" y="450" width="10" height="34" rx="1" class="bar"/>
  <rect x="451.28" y="138" width="10" height="412" rx="1" class="bar"/>
  <rect x="925.625" y="584" width="10" height="34" rx="1" class="bar"/>
  <rect x="1324.52" y="779" width="10" height="34" rx="1" class="bar"/>
  <rect x="1047.52" y="699" width="10" height="295" rx="1" class="bar"/>
  <rect x="1727.44" y="1028" width="10" height="34" rx="1" class="bar"/>
  <rect x="2335.58" y="1365" width="10" height="34" rx="1" class="bar"/>
  <rect x="2335.58" y="1459" width="10" height="34" rx="1" class="bar"/>
  <rect x="1849.33" y="1169" width="10" height="490" rx="1" class="bar"/>
  <rect x="2866.68" y="1826" width="10" height="34" rx="1" class="bar"/>
  <rect x="3003.42" y="1894" width="10" height="34" rx="1" class="bar"/>
  <rect x="2636.93" y="1719" width="10" height="275" rx="1" class="bar"/>
  <rect x="2335.58" y="2224" width="10" height="34" rx="1" class="bar"/>
  <rect x="2335.58" y="2318" width="10" height="34" rx="1" class="bar"/>
  <rect x="1849.33" y="2028" width="10" height="490" rx="1" class="bar"/>
  <rect x="3128.41" y="2616" width="10" height="34" rx="1" class="bar"/>
  <rect x="295.235" y="104" width="10" height="2580" rx="1" class="bar"/>
  <rect x="604.22" y="219" width="10" height="14" rx="1" class="bar"/>
  <rect x="451.28" y="285" width="10" height="14" rx="1" class="bar"/>
  <rect x="451.28" y="331" width="10" height="14" rx="1" class="bar"/>
  <rect x="1047.52" y="733" width="10" height="14" rx="1" class="bar"/>
  <rect x="1486.77" y="894" width="10" height="14" rx="1" class="bar"/>
  <rect x="1610.21" y="960" width="10" height="14" rx="1" class="bar"/>
  <rect x="2011.41" y="1250" width="10" height="14" rx="1" class="bar"/>
  <rect x="2173.5" y="1284" width="10" height="14" rx="1" class="bar"/>
  <rect x="2431.74" y="1559" width="10" height="14" rx="1" class="bar"/>
  <rect x="2527.9" y="1593" width="10" height="14" rx="1" class="bar"/>
  <rect x="2011.41" y="2109" width="10" height="14" rx="1" class="bar"/>
  <rect x="2173.5" y="2143" width="10" height="14" rx="1" class="bar"/>
  <rect x="2431.74" y="2418" width="10" height="14" rx="1" class="bar"/>
  <rect x="2527.9" y="2452" width="10" height="14" rx="1" class="bar"/>
  <path d="M 68.735 104 L 295.235 104" class="send"/>
  <text x="181.985" y="97" class="said" text-anchor="middle">run(state, thread_id, on_text)</text>
  <path d="M 305.235 138 L 451.28 138" class="send"/>
  <text x="378.258" y="131" class="said" text-anchor="middle">screen(state)</text>
  <path d="M 461.28 219 L 604.22 219" class="send"/>
  <text x="532.75" y="212" class="said" text-anchor="middle">apply(question)</text>
  <path d="M 461.28 285 L 487.28 285 L 487.28 303 L 466.28 303" class="send"/>
  <text x="497.28" y="290" class="said" text-anchor="start">_brief()</text>
  <path d="M 461.28 331 L 487.28 331 L 487.28 349 L 466.28 349" class="send"/>
  <text x="497.28" y="336" class="said" text-anchor="start">_recalled()</text>
  <path d="M 461.28 450 L 778.895 450" class="send"/>
  <rect x="588.087" y="431" width="64" height="16" rx="2" class="sheet"/>
  <text x="620.087" y="443" class="said" text-anchor="middle">recall()</text>
  <path d="M 778.895 484 L 461.28 484" class="back"/>
  <rect x="561.087" y="465" width="118" height="16" rx="2" class="sheet"/>
  <text x="620.087" y="477" class="answer" text-anchor="middle">tuple[Fact, ...]</text>
  <path d="M 451.28 550 L 305.235 550" class="back"/>
  <text x="378.258" y="543" class="answer" text-anchor="middle">AgentState</text>
  <path d="M 305.235 584 L 925.625 584" class="send"/>
  <rect x="573.305" y="565" width="84.25" height="16" rx="2" class="sheet"/>
  <text x="615.43" y="577" class="said" text-anchor="middle">work(state)</text>
  <path d="M 925.625 618 L 305.235 618" class="back"/>
  <rect x="576.68" y="599" width="77.5" height="16" rx="2" class="sheet"/>
  <text x="615.43" y="611" class="answer" text-anchor="middle">AgentState</text>
  <path d="M 305.235 699 L 1047.52 699" class="send"/>
  <text x="676.375" y="692" class="said" text-anchor="middle">model(state)</text>
  <path d="M 1057.52 733 L 1083.52 733 L 1083.52 751 L 1062.52 751" class="send"/>
  <text x="1093.52" y="738" class="said" text-anchor="start">_prompt(state)</text>
  <path d="M 1057.52 779 L 1324.52 779" class="send"/>
  <text x="1191.02" y="772" class="said" text-anchor="middle">complete(_prompt(…), tools, on_text)</text>
  <path d="M 1324.52 813 L 1057.52 813" class="back"/>
  <text x="1191.02" y="806" class="answer" text-anchor="middle">reply</text>
  <path d="M 1057.52 894 L 1486.77 894" class="send"/>
  <rect x="1209.77" y="875" width="124.75" height="16" rx="2" class="sheet"/>
  <text x="1272.14" y="887" class="said" text-anchor="middle">on_text(Aside(…))</text>
  <path d="M 1057.52 960 L 1610.21 960" class="send"/>
  <rect x="1281.61" y="941" width="104.5" height="16" rx="2" class="sheet"/>
  <text x="1333.86" y="953" class="said" text-anchor="middle">decided(reply)</text>
  <path d="M 1047.52 994 L 305.235 994" class="back"/>
  <text x="676.375" y="987" class="answer" text-anchor="middle">AgentState</text>
  <path d="M 305.235 1028 L 1727.44 1028" class="send"/>
  <rect x="967.463" y="1009" width="97.75" height="16" rx="2" class="sheet"/>
  <text x="1016.34" y="1021" class="said" text-anchor="middle">router(state)</text>
  <path d="M 1727.44 1062 L 305.235 1062" class="back"/>
  <rect x="950.588" y="1043" width="131.5" height="16" rx="2" class="sheet"/>
  <text x="1016.34" y="1055" class="answer" text-anchor="middle">done | tools | ask</text>
  <path d="M 305.235 1169 L 1849.33 1169" class="send"/>
  <rect x="1031.78" y="1150" width="91" height="16" rx="2" class="sheet"/>
  <text x="1077.28" y="1162" class="said" text-anchor="middle">tools(state)</text>
  <path d="M 1859.33 1250 L 2011.41 1250" class="send"/>
  <text x="1935.37" y="1243" class="said" text-anchor="middle">collecting()</text>
  <path d="M 1859.33 1284 L 2173.5 1284" class="send"/>
  <rect x="1967.54" y="1265" width="97.75" height="16" rx="2" class="sheet"/>
  <text x="2016.41" y="1277" class="said" text-anchor="middle">execute(call)</text>
  <path d="M 1859.33 1365 L 2335.58 1365" class="send"/>
  <rect x="1866.33" y="1346" width="462.25" height="16" rx="2" class="sheet"/>
  <text x="2097.46" y="1358" class="said" text-anchor="middle">Read(body=render(…), outcome=render(…), untrusted=inside.untrusted)</text>
  <path d="M 2335.58 1399 L 1859.33 1399" class="back"/>
  <text x="2097.46" y="1392" class="answer" text-anchor="middle">read</text>
  <path d="M 1859.33 1459 L 2335.58 1459" class="send"/>
  <rect x="1876.46" y="1440" width="442" height="16" rx="2" class="sheet"/>
  <text x="2097.46" y="1452" class="said" text-anchor="middle">Read(body=context.text, outcome=citable.summary, untrusted=True)</text>
  <path d="M 2335.58 1493 L 1859.33 1493" class="back"/>
  <text x="2097.46" y="1486" class="answer" text-anchor="middle">read</text>
  <path d="M 1859.33 1559 L 2431.74 1559" class="send"/>
  <rect x="2079.79" y="1540" width="131.5" height="16" rx="2" class="sheet"/>
  <text x="2145.54" y="1552" class="said" text-anchor="middle">told(result, read)</text>
  <path d="M 1859.33 1593 L 2527.9 1593" class="send"/>
  <rect x="2073.87" y="1574" width="239.5" height="16" rx="2" class="sheet"/>
  <text x="2193.62" y="1586" class="said" text-anchor="middle">used(call, result, read, tuple(…))</text>
  <path d="M 1849.33 1659 L 305.235 1659" class="back"/>
  <rect x="1038.53" y="1640" width="77.5" height="16" rx="2" class="sheet"/>
  <text x="1077.28" y="1652" class="answer" text-anchor="middle">AgentState</text>
  <path d="M 305.235 1719 L 2636.93 1719" class="send"/>
  <rect x="1432.33" y="1700" width="77.5" height="16" rx="2" class="sheet"/>
  <text x="1471.08" y="1712" class="said" text-anchor="middle">ask(state)</text>
  <path d="M 2646.93 1826 L 2866.68 1826" class="send"/>
  <text x="2756.8" y="1819" class="said" text-anchor="middle">decision_from(call.arguments)</text>
  <path d="M 2866.68 1860 L 2646.93 1860" class="back"/>
  <text x="2756.8" y="1853" class="answer" text-anchor="middle">decision</text>
  <path d="M 2646.93 1894 L 3003.42 1894" class="send"/>
  <rect x="2769.55" y="1875" width="111.25" height="16" rx="2" class="sheet"/>
  <text x="2825.17" y="1887" class="said" text-anchor="middle">pause(decision)</text>
  <path d="M 3003.42 1928 L 2646.93 1928" class="back"/>
  <text x="2825.17" y="1921" class="answer" text-anchor="middle">chosen</text>
  <path d="M 2636.93 1994 L 305.235 1994" class="back"/>
  <rect x="1432.33" y="1975" width="77.5" height="16" rx="2" class="sheet"/>
  <text x="1471.08" y="1987" class="answer" text-anchor="middle">AgentState</text>
  <path d="M 305.235 2028 L 1849.33 2028" class="send"/>
  <rect x="1031.78" y="2009" width="91" height="16" rx="2" class="sheet"/>
  <text x="1077.28" y="2021" class="said" text-anchor="middle">tools(state)</text>
  <path d="M 1859.33 2109 L 2011.41 2109" class="send"/>
  <text x="1935.37" y="2102" class="said" text-anchor="middle">collecting()</text>
  <path d="M 1859.33 2143 L 2173.5 2143" class="send"/>
  <rect x="1967.54" y="2124" width="97.75" height="16" rx="2" class="sheet"/>
  <text x="2016.41" y="2136" class="said" text-anchor="middle">execute(call)</text>
  <path d="M 1859.33 2224 L 2335.58 2224" class="send"/>
  <rect x="1866.33" y="2205" width="462.25" height="16" rx="2" class="sheet"/>
  <text x="2097.46" y="2217" class="said" text-anchor="middle">Read(body=render(…), outcome=render(…), untrusted=inside.untrusted)</text>
  <path d="M 2335.58 2258 L 1859.33 2258" class="back"/>
  <text x="2097.46" y="2251" class="answer" text-anchor="middle">read</text>
  <path d="M 1859.33 2318 L 2335.58 2318" class="send"/>
  <rect x="1876.46" y="2299" width="442" height="16" rx="2" class="sheet"/>
  <text x="2097.46" y="2311" class="said" text-anchor="middle">Read(body=context.text, outcome=citable.summary, untrusted=True)</text>
  <path d="M 2335.58 2352 L 1859.33 2352" class="back"/>
  <text x="2097.46" y="2345" class="answer" text-anchor="middle">read</text>
  <path d="M 1859.33 2418 L 2431.74 2418" class="send"/>
  <rect x="2079.79" y="2399" width="131.5" height="16" rx="2" class="sheet"/>
  <text x="2145.54" y="2411" class="said" text-anchor="middle">told(result, read)</text>
  <path d="M 1859.33 2452 L 2527.9 2452" class="send"/>
  <rect x="2073.87" y="2433" width="239.5" height="16" rx="2" class="sheet"/>
  <text x="2193.62" y="2445" class="said" text-anchor="middle">used(call, result, read, tuple(…))</text>
  <path d="M 1849.33 2518 L 305.235 2518" class="back"/>
  <rect x="1038.53" y="2499" width="77.5" height="16" rx="2" class="sheet"/>
  <text x="1077.28" y="2511" class="answer" text-anchor="middle">AgentState</text>
  <path d="M 305.235 2616 L 3128.41 2616" class="send"/>
  <rect x="1667.95" y="2597" width="97.75" height="16" rx="2" class="sheet"/>
  <text x="1716.83" y="2609" class="said" text-anchor="middle">answer(state)</text>
  <path d="M 3128.41 2650 L 305.235 2650" class="back"/>
  <rect x="1678.08" y="2631" width="77.5" height="16" rx="2" class="sheet"/>
  <text x="1716.83" y="2643" class="answer" text-anchor="middle">AgentState</text>
  <path d="M 295.235 2684 L 68.735 2684" class="back"/>
  <text x="181.985" y="2677" class="answer" text-anchor="middle">Iterator[AgentState]</text>
</svg>
