<svg xmlns="http://www.w3.org/2000/svg" viewBox="0 0 4145.51 5441" width="4145.51" height="5441" role="img" aria-label="A UML sequence diagram of round: 75 messages between agent: Agent, runner: LangGraphRunner, screen: ScreenStep, registry: Registry, dispatch, route: RouteStep, chat_model: OpenRouterChatModel, focus: FocusStep, pause: Pause, memory: SqliteStoreMemory, work: Named, model: ModelStep, on_text: TextSink, decided, router: Router, tools: ToolStep, Inside, collecting, tool_runtime: ToolRuntime, read_untrusted, Read, told, used, ask: AskStep, decision_from, answer: AnswerStep. Generated by scripts/gen_session_maps.py.">
  <style>
    text { font: 13px/1.4 -apple-system, "Segoe UI", Roboto, sans-serif; fill: #202124 }
    .role { font-weight: 600 }
    .kind { font-size: 11.5px; fill: #5f6368 }
    .head { fill: #f2f8fd; stroke: #2b7fc4; stroke-width: 1.4 }
    .life { stroke: #9aa0a6; stroke-width: 1.1; stroke-dasharray: 5 5 }
    .bar { fill: #ffffff; stroke: #2b7fc4; stroke-width: 1.1 }
    .send { stroke: #202124; stroke-width: 1.3; fill: none; marker-end: url(#sent) }
    .back { stroke: #6b7280; stroke-width: 1.1; fill: none;
            stroke-dasharray: 6 4; marker-end: url(#answered) }
    .said { font-size: 12.5px }
    .sheet { fill: #f8f9fa; stroke: none }
    .answer { font-size: 11.5px; fill: #6b7280; font-style: italic }
    .frame { fill: none; stroke: #9aa0a6; stroke-width: 1.1 }
    .tab { fill: #f8f9fa; stroke: #9aa0a6; stroke-width: 1.1 }
    .operator { font-size: 11px; font-weight: 600; fill: #5f6368;
                letter-spacing: .03em }
    .guard { font-size: 11.5px; fill: #14425f; font-style: italic }
    .split { stroke: #9aa0a6; stroke-width: 1; stroke-dasharray: 4 4; fill: none }
    @media (prefers-color-scheme: dark) {
      text { fill: #e8eaed }
      .kind { fill: #9aa0a6 }
      .head { fill: #10283a; stroke: #6fb6ea }
      .bar { fill: #303134; stroke: #6fb6ea }
      .send { stroke: #e8eaed }
      .sheet { fill: #2b2c2f }
      .back { stroke: #bdc1c6 }
      .answer { fill: #bdc1c6 }
      .frame, .split { stroke: #bdc1c6 }
      .tab { fill: #2b2c2f; stroke: #bdc1c6 }
      .operator { fill: #bdc1c6 }
      .guard { fill: #cfe6f7 }
    }
  </style>
  <defs><marker id="sent" viewBox="0 0 10 10" refX="9" refY="5" markerWidth="8" markerHeight="8" orient="auto-start-reverse"><path d="M 0 1 L 9 5 L 0 9 z" fill="context-stroke"/></marker><marker id="answered" viewBox="0 0 10 10" refX="9" refY="5" markerWidth="9" markerHeight="9" orient="auto-start-reverse"><path d="M 0 1 L 9 5 L 0 9" fill="none" stroke="context-stroke" stroke-width="1.4"/></marker></defs>
  <rect x="48" y="692" width="4049.51" height="359" rx="2" class="frame"/>
  <rect x="48" y="692" width="41.14" height="19" rx="2" class="tab"/>
  <text x="58" y="706" class="operator" text-anchor="start">alt</text>
  <text x="101.14" y="725" class="guard" text-anchor="start">[chat_model is None]</text>
  <path d="M 48 737 L 4097.51 737" class="split"/>
  <text x="101.14" y="751" class="guard" text-anchor="start">[else]</text>
  <rect x="39" y="573" width="4067.51" height="510" rx="2" class="frame"/>
  <rect x="39" y="573" width="41.14" height="19" rx="2" class="tab"/>
  <text x="49" y="587" class="operator" text-anchor="start">alt</text>
  <text x="92.14" y="606" class="guard" text-anchor="start">[not available]</text>
  <path d="M 39 618 L 4106.51 618" class="split"/>
  <text x="92.14" y="632" class="guard" text-anchor="start">[else]</text>
  <rect x="30" y="500" width="4085.51" height="615" rx="2" class="frame"/>
  <rect x="30" y="500" width="41.14" height="19" rx="2" class="tab"/>
  <text x="40" y="514" class="operator" text-anchor="start">alt</text>
  <text x="83.14" y="533" class="guard" text-anchor="start">[len(available) == 1]</text>
  <path d="M 30 545 L 4115.51 545" class="split"/>
  <text x="83.14" y="559" class="guard" text-anchor="start">[else]</text>
  <rect x="21" y="427" width="4103.51" height="720" rx="2" class="frame"/>
  <rect x="21" y="427" width="41.14" height="19" rx="2" class="tab"/>
  <text x="31" y="441" class="operator" text-anchor="start">alt</text>
  <text x="74.14" y="460" class="guard" text-anchor="start">[named]</text>
  <path d="M 21 472 L 4124.51 472" class="split"/>
  <text x="74.14" y="486" class="guard" text-anchor="start">[else]</text>
  <rect x="12" y="354" width="4121.51" height="825" rx="2" class="frame"/>
  <rect x="12" y="354" width="41.14" height="19" rx="2" class="tab"/>
  <text x="22" y="368" class="operator" text-anchor="start">alt</text>
  <text x="65.14" y="387" class="guard" text-anchor="start">[pinned]</text>
  <path d="M 12 399 L 4133.51 399" class="split"/>
  <text x="65.14" y="413" class="guard" text-anchor="start">[else]</text>
  <rect x="12" y="1267" width="4121.51" height="253" rx="2" class="frame"/>
  <rect x="12" y="1267" width="41.14" height="19" rx="2" class="tab"/>
  <text x="22" y="1281" class="operator" text-anchor="start">alt</text>
  <text x="65.14" y="1300" class="guard" text-anchor="start">[contested and (not scoped(state))]</text>
  <rect x="12" y="1632" width="4121.51" height="153" rx="2" class="frame"/>
  <rect x="12" y="1632" width="41.14" height="19" rx="2" class="tab"/>
  <text x="22" y="1646" class="operator" text-anchor="start">alt</text>
  <text x="65.14" y="1665" class="guard" text-anchor="start">[memory is None]</text>
  <path d="M 12 1677 L 4133.51 1677" class="split"/>
  <text x="65.14" y="1691" class="guard" text-anchor="start">[else]</text>
  <rect x="21" y="2490" width="4103.51" height="93" rx="2" class="frame"/>
  <rect x="21" y="2490" width="41.14" height="19" rx="2" class="tab"/>
  <text x="31" y="2504" class="operator" text-anchor="start">alt</text>
  <text x="74.14" y="2523" class="guard" text-anchor="start">[not reply.is_final and reply.text]</text>
  <rect x="39" y="3053" width="4067.51" height="93" rx="2" class="frame"/>
  <rect x="39" y="3053" width="53.9" height="19" rx="2" class="tab"/>
  <text x="49" y="3067" class="operator" text-anchor="start">break</text>
  <text x="104.9" y="3086" class="guard" text-anchor="start">[ToolRefusal]</text>
  <rect x="39" y="3496" width="4067.51" height="221" rx="2" class="frame"/>
  <rect x="39" y="3496" width="41.14" height="19" rx="2" class="tab"/>
  <text x="49" y="3510" class="operator" text-anchor="start">alt</text>
  <text x="92.14" y="3529" class="guard" text-anchor="start">[citable is None]</text>
  <path d="M 39 3609 L 4106.51 3609" class="split"/>
  <text x="92.14" y="3623" class="guard" text-anchor="start">[else]</text>
  <rect x="30" y="2846" width="4085.51" height="971" rx="2" class="frame"/>
  <rect x="30" y="2846" width="47.52" height="19" rx="2" class="tab"/>
  <text x="40" y="2860" class="operator" text-anchor="start">loop</text>
  <text x="89.52" y="2879" class="guard" text-anchor="start">[_requested_calls(state)]</text>
  <rect x="30" y="3931" width="4085.51" height="221" rx="2" class="frame"/>
  <rect x="30" y="3931" width="41.14" height="19" rx="2" class="tab"/>
  <text x="40" y="3945" class="operator" text-anchor="start">alt</text>
  <text x="83.14" y="3964" class="guard" text-anchor="start">[call is None]</text>
  <path d="M 30 3976 L 4115.51 3976" class="split"/>
  <text x="83.14" y="3990" class="guard" text-anchor="start">[else]</text>
  <rect x="39" y="4447" width="4067.51" height="93" rx="2" class="frame"/>
  <rect x="39" y="4447" width="53.9" height="19" rx="2" class="tab"/>
  <text x="49" y="4461" class="operator" text-anchor="start">break</text>
  <text x="104.9" y="4480" class="guard" text-anchor="start">[ToolRefusal]</text>
  <rect x="39" y="4890" width="4067.51" height="221" rx="2" class="frame"/>
  <rect x="39" y="4890" width="41.14" height="19" rx="2" class="tab"/>
  <text x="49" y="4904" class="operator" text-anchor="start">alt</text>
  <text x="92.14" y="4923" class="guard" text-anchor="start">[citable is None]</text>
  <path d="M 39 5003 L 4106.51 5003" class="split"/>
  <text x="92.14" y="5017" class="guard" text-anchor="start">[else]</text>
  <rect x="30" y="4240" width="4085.51" height="971" rx="2" class="frame"/>
  <rect x="30" y="4240" width="47.52" height="19" rx="2" class="tab"/>
  <text x="40" y="4254" class="operator" text-anchor="start">loop</text>
  <text x="89.52" y="4273" class="guard" text-anchor="start">[_requested_calls(state)]</text>
  <rect x="21" y="2739" width="4103.51" height="2538" rx="2" class="frame"/>
  <rect x="21" y="2739" width="41.14" height="19" rx="2" class="tab"/>
  <text x="31" y="2753" class="operator" text-anchor="start">alt</text>
  <text x="74.14" y="2772" class="guard" text-anchor="start">[done]</text>
  <path d="M 21 2784 L 4124.51 2784" class="split"/>
  <text x="74.14" y="2798" class="guard" text-anchor="start">[tools]</text>
  <path d="M 21 3869 L 4124.51 3869" class="split"/>
  <text x="74.14" y="3883" class="guard" text-anchor="start">[ask]</text>
  <rect x="12" y="2135" width="4121.51" height="3174" rx="2" class="frame"/>
  <rect x="12" y="2135" width="47.52" height="19" rx="2" class="tab"/>
  <text x="22" y="2149" class="operator" text-anchor="start">loop</text>
  <text x="71.52" y="2168" class="guard" text-anchor="start">[router(state) != "done"]</text>
  <rect x="24" y="24" width="79.47" height="46" rx="3" class="head"/>
  <text x="63.735" y="44" class="role" text-anchor="middle">agent</text>
  <text x="63.735" y="60" class="kind" text-anchor="middle">: Agent</text>
  <path d="M 63.735 70 L 63.735 5431" class="life"/>
  <rect x="229.45" y="24" width="141.57" height="46" rx="3" class="head"/>
  <text x="300.235" y="44" class="role" text-anchor="middle">runner</text>
  <text x="300.235" y="60" class="kind" text-anchor="middle">: LangGraphRunner</text>
  <path d="M 300.235 70 L 300.235 5431" class="life"/>
  <rect x="401.02" y="24" width="110.52" height="46" rx="3" class="head"/>
  <text x="456.28" y="44" class="role" text-anchor="middle">screen</text>
  <text x="456.28" y="60" class="kind" text-anchor="middle">: ScreenStep</text>
  <path d="M 456.28 70 L 456.28 5431" class="life"/>
  <rect x="643.73" y="24" width="98.1" height="46" rx="3" class="head"/>
  <text x="692.78" y="44" class="role" text-anchor="middle">registry</text>
  <text x="692.78" y="60" class="kind" text-anchor="middle">: Registry</text>
  <path d="M 692.78 70 L 692.78 5431" class="life"/>
  <rect x="826.995" y="24" width="96.32" height="46" rx="3" class="head"/>
  <text x="875.155" y="44" class="role" text-anchor="middle">dispatch</text>
  <path d="M 875.155 70 L 875.155 5431" class="life"/>
  <rect x="953.315" y="24" width="104.31" height="46" rx="3" class="head"/>
  <text x="1005.47" y="44" class="role" text-anchor="middle">route</text>
  <text x="1005.47" y="60" class="kind" text-anchor="middle">: RouteStep</text>
  <path d="M 1005.47 70 L 1005.47 5431" class="life"/>
  <rect x="1144.27" y="24" width="166.41" height="46" rx="3" class="head"/>
  <text x="1227.47" y="44" class="role" text-anchor="middle">chat_model</text>
  <text x="1227.47" y="60" class="kind" text-anchor="middle">: OpenRouterChatModel</text>
  <path d="M 1227.47 70 L 1227.47 5431" class="life"/>
  <rect x="1340.67" y="24" width="104.31" height="46" rx="3" class="head"/>
  <text x="1392.83" y="44" class="role" text-anchor="middle">focus</text>
  <text x="1392.83" y="60" class="kind" text-anchor="middle">: FocusStep</text>
  <path d="M 1392.83 70 L 1392.83 5431" class="life"/>
  <rect x="1554.85" y="24" width="79.47" height="46" rx="3" class="head"/>
  <text x="1594.58" y="44" class="role" text-anchor="middle">pause</text>
  <text x="1594.58" y="60" class="kind" text-anchor="middle">: Pause</text>
  <path d="M 1594.58 70 L 1594.58 5431" class="life"/>
  <rect x="1664.32" y="24" width="153.99" height="46" rx="3" class="head"/>
  <text x="1741.31" y="44" class="role" text-anchor="middle">memory</text>
  <text x="1741.31" y="60" class="kind" text-anchor="middle">: SqliteStoreMemory</text>
  <path d="M 1741.31 70 L 1741.31 5431" class="life"/>
  <rect x="1848.31" y="24" width="79.47" height="46" rx="3" class="head"/>
  <text x="1888.04" y="44" class="role" text-anchor="middle">work</text>
  <text x="1888.04" y="60" class="kind" text-anchor="middle">: Named</text>
  <path d="M 1888.04 70 L 1888.04 5431" class="life"/>
  <rect x="1957.78" y="24" width="104.31" height="46" rx="3" class="head"/>
  <text x="2009.93" y="44" class="role" text-anchor="middle">model</text>
  <text x="2009.93" y="60" class="kind" text-anchor="middle">: ModelStep</text>
  <path d="M 2009.93 70 L 2009.93 5431" class="life"/>
  <rect x="2122.13" y="24" width="98.1" height="46" rx="3" class="head"/>
  <text x="2171.18" y="44" class="role" text-anchor="middle">on_text</text>
  <text x="2171.18" y="60" class="kind" text-anchor="middle">: TextSink</text>
  <path d="M 2171.18 70 L 2171.18 5431" class="life"/>
  <rect x="2250.23" y="24" width="88.78" height="46" rx="3" class="head"/>
  <text x="2294.62" y="44" class="role" text-anchor="middle">decided</text>
  <path d="M 2294.62 70 L 2294.62 5431" class="life"/>
  <rect x="2369.01" y="24" width="85.68" height="46" rx="3" class="head"/>
  <text x="2411.85" y="44" class="role" text-anchor="middle">router</text>
  <text x="2411.85" y="60" class="kind" text-anchor="middle">: Router</text>
  <path d="M 2411.85 70 L 2411.85 5431" class="life"/>
  <rect x="2484.69" y="24" width="98.1" height="46" rx="3" class="head"/>
  <text x="2533.74" y="44" class="role" text-anchor="middle">tools</text>
  <text x="2533.74" y="60" class="kind" text-anchor="middle">: ToolStep</text>
  <path d="M 2533.74 70 L 2533.74 5431" class="life"/>
  <rect x="2769.12" y="24" width="81.24" height="46" rx="3" class="head"/>
  <text x="2809.74" y="44" class="role" text-anchor="middle">Inside</text>
  <path d="M 2809.74 70 L 2809.74 5431" class="life"/>
  <rect x="2880.36" y="24" width="111.4" height="46" rx="3" class="head"/>
  <text x="2936.06" y="44" class="role" text-anchor="middle">collecting</text>
  <path d="M 2936.06 70 L 2936.06 5431" class="life"/>
  <rect x="3021.76" y="24" width="126.48" height="46" rx="3" class="head"/>
  <text x="3085" y="44" class="role" text-anchor="middle">tool_runtime</text>
  <text x="3085" y="60" class="kind" text-anchor="middle">: ToolRuntime</text>
  <path d="M 3085 70 L 3085 5431" class="life"/>
  <rect x="3178.24" y="24" width="141.56" height="46" rx="3" class="head"/>
  <text x="3249.02" y="44" class="role" text-anchor="middle">read_untrusted</text>
  <path d="M 3249.02 70 L 3249.02 5431" class="life"/>
  <rect x="3349.8" y="24" width="66.16" height="46" rx="3" class="head"/>
  <text x="3382.88" y="44" class="role" text-anchor="middle">Read</text>
  <path d="M 3382.88 70 L 3382.88 5431" class="life"/>
  <rect x="3445.96" y="24" width="66.16" height="46" rx="3" class="head"/>
  <text x="3479.04" y="44" class="role" text-anchor="middle">told</text>
  <path d="M 3479.04 70 L 3479.04 5431" class="life"/>
  <rect x="3542.12" y="24" width="66.16" height="46" rx="3" class="head"/>
  <text x="3575.2" y="44" class="role" text-anchor="middle">used</text>
  <path d="M 3575.2 70 L 3575.2 5431" class="life"/>
  <rect x="3638.28" y="24" width="91.89" height="46" rx="3" class="head"/>
  <text x="3684.23" y="44" class="role" text-anchor="middle">ask</text>
  <text x="3684.23" y="60" class="kind" text-anchor="middle">: AskStep</text>
  <path d="M 3684.23 70 L 3684.23 5431" class="life"/>
  <rect x="3846.97" y="24" width="134.02" height="46" rx="3" class="head"/>
  <text x="3913.98" y="44" class="role" text-anchor="middle">decision_from</text>
  <path d="M 3913.98 70 L 3913.98 5431" class="life"/>
  <rect x="4010.99" y="24" width="110.52" height="46" rx="3" class="head"/>
  <text x="4066.25" y="44" class="role" text-anchor="middle">answer</text>
  <text x="4066.25" y="60" class="kind" text-anchor="middle">: AnswerStep</text>
  <path d="M 4066.25 70 L 4066.25 5431" class="life"/>
  <rect x="451.28" y="138" width="10" height="148" rx="1" class="bar"/>
  <rect x="687.78" y="811" width="10" height="80" rx="1" class="bar"/>
  <rect x="1222.47" y="925" width="10" height="34" rx="1" class="bar"/>
  <rect x="1000.47" y="320" width="10" height="879" rx="1" class="bar"/>
  <rect x="1589.58" y="1440" width="10" height="34" rx="1" class="bar"/>
  <rect x="1736.31" y="1705" width="10" height="34" rx="1" class="bar"/>
  <rect x="687.78" y="1805" width="10" height="80" rx="1" class="bar"/>
  <rect x="1387.83" y="1233" width="10" height="800" rx="1" class="bar"/>
  <rect x="1883.04" y="2067" width="10" height="34" rx="1" class="bar"/>
  <rect x="687.78" y="2308" width="10" height="80" rx="1" class="bar"/>
  <rect x="1222.47" y="2422" width="10" height="34" rx="1" class="bar"/>
  <rect x="2004.93" y="2182" width="10" height="455" rx="1" class="bar"/>
  <rect x="2406.85" y="2671" width="10" height="34" rx="1" class="bar"/>
  <rect x="687.78" y="3234" width="10" height="80" rx="1" class="bar"/>
  <rect x="3377.88" y="3543" width="10" height="34" rx="1" class="bar"/>
  <rect x="3377.88" y="3637" width="10" height="34" rx="1" class="bar"/>
  <rect x="2528.74" y="2812" width="10" height="1025" rx="1" class="bar"/>
  <rect x="3908.98" y="4004" width="10" height="34" rx="1" class="bar"/>
  <rect x="1589.58" y="4072" width="10" height="34" rx="1" class="bar"/>
  <rect x="3679.23" y="3897" width="10" height="275" rx="1" class="bar"/>
  <rect x="687.78" y="4628" width="10" height="80" rx="1" class="bar"/>
  <rect x="3377.88" y="4937" width="10" height="34" rx="1" class="bar"/>
  <rect x="3377.88" y="5031" width="10" height="34" rx="1" class="bar"/>
  <rect x="2528.74" y="4206" width="10" height="1025" rx="1" class="bar"/>
  <rect x="4061.25" y="5329" width="10" height="34" rx="1" class="bar"/>
  <rect x="295.235" y="104" width="10" height="5293" rx="1" class="bar"/>
  <rect x="687.78" y="172" width="10" height="14" rx="1" class="bar"/>
  <rect x="687.78" y="206" width="10" height="14" rx="1" class="bar"/>
  <rect x="870.155" y="252" width="10" height="14" rx="1" class="bar"/>
  <rect x="1000.47" y="646" width="10" height="14" rx="1" class="bar"/>
  <rect x="1000.47" y="765" width="10" height="14" rx="1" class="bar"/>
  <rect x="687.78" y="845" width="10" height="14" rx="1" class="bar"/>
  <rect x="1000.47" y="993" width="10" height="14" rx="1" class="bar"/>
  <rect x="1387.83" y="1314" width="10" height="14" rx="1" class="bar"/>
  <rect x="687.78" y="1360" width="10" height="14" rx="1" class="bar"/>
  <rect x="687.78" y="1394" width="10" height="14" rx="1" class="bar"/>
  <rect x="1387.83" y="1540" width="10" height="14" rx="1" class="bar"/>
  <rect x="1387.83" y="1586" width="10" height="14" rx="1" class="bar"/>
  <rect x="687.78" y="1839" width="10" height="14" rx="1" class="bar"/>
  <rect x="687.78" y="1919" width="10" height="14" rx="1" class="bar"/>
  <rect x="687.78" y="1953" width="10" height="14" rx="1" class="bar"/>
  <rect x="870.155" y="1999" width="10" height="14" rx="1" class="bar"/>
  <rect x="2004.93" y="2216" width="10" height="14" rx="1" class="bar"/>
  <rect x="2004.93" y="2262" width="10" height="14" rx="1" class="bar"/>
  <rect x="687.78" y="2342" width="10" height="14" rx="1" class="bar"/>
  <rect x="2166.18" y="2537" width="10" height="14" rx="1" class="bar"/>
  <rect x="2289.62" y="2603" width="10" height="14" rx="1" class="bar"/>
  <rect x="2528.74" y="2893" width="10" height="14" rx="1" class="bar"/>
  <rect x="687.78" y="2939" width="10" height="14" rx="1" class="bar"/>
  <rect x="687.78" y="2973" width="10" height="14" rx="1" class="bar"/>
  <rect x="870.155" y="3019" width="10" height="14" rx="1" class="bar"/>
  <rect x="2804.74" y="3100" width="10" height="14" rx="1" class="bar"/>
  <rect x="2931.06" y="3166" width="10" height="14" rx="1" class="bar"/>
  <rect x="3080" y="3200" width="10" height="14" rx="1" class="bar"/>
  <rect x="687.78" y="3268" width="10" height="14" rx="1" class="bar"/>
  <rect x="3244.02" y="3348" width="10" height="14" rx="1" class="bar"/>
  <rect x="687.78" y="3382" width="10" height="14" rx="1" class="bar"/>
  <rect x="687.78" y="3416" width="10" height="14" rx="1" class="bar"/>
  <rect x="870.155" y="3462" width="10" height="14" rx="1" class="bar"/>
  <rect x="3474.04" y="3737" width="10" height="14" rx="1" class="bar"/>
  <rect x="3570.2" y="3771" width="10" height="14" rx="1" class="bar"/>
  <rect x="2528.74" y="4287" width="10" height="14" rx="1" class="bar"/>
  <rect x="687.78" y="4333" width="10" height="14" rx="1" class="bar"/>
  <rect x="687.78" y="4367" width="10" height="14" rx="1" class="bar"/>
  <rect x="870.155" y="4413" width="10" height="14" rx="1" class="bar"/>
  <rect x="2804.74" y="4494" width="10" height="14" rx="1" class="bar"/>
  <rect x="2931.06" y="4560" width="10" height="14" rx="1" class="bar"/>
  <rect x="3080" y="4594" width="10" height="14" rx="1" class="bar"/>
  <rect x="687.78" y="4662" width="10" height="14" rx="1" class="bar"/>
  <rect x="3244.02" y="4742" width="10" height="14" rx="1" class="bar"/>
  <rect x="687.78" y="4776" width="10" height="14" rx="1" class="bar"/>
  <rect x="687.78" y="4810" width="10" height="14" rx="1" class="bar"/>
  <rect x="870.155" y="4856" width="10" height="14" rx="1" class="bar"/>
  <rect x="3474.04" y="5131" width="10" height="14" rx="1" class="bar"/>
  <rect x="3570.2" y="5165" width="10" height="14" rx="1" class="bar"/>
  <path d="M 68.735 104 L 295.235 104" class="send"/>
  <text x="181.985" y="97" class="said" text-anchor="middle">run(state, thread_id, on_text)</text>
  <path d="M 305.235 138 L 451.28 138" class="send"/>
  <text x="378.258" y="131" class="said" text-anchor="middle">screen(state)</text>
  <path d="M 461.28 172 L 687.78 172" class="send"/>
  <text x="574.53" y="165" class="said" text-anchor="middle">handlers(SCREENING, scoped(…))</text>
  <path d="M 697.78 206 L 723.78 206 L 723.78 224 L 702.78 224" class="send"/>
  <text x="733.78" y="211" class="said" text-anchor="start">_of(HANDLER)</text>
  <path d="M 461.28 252 L 870.155 252" class="send"/>
  <rect x="495.342" y="233" width="340.75" height="16" rx="2" class="sheet"/>
  <text x="665.717" y="245" class="said" text-anchor="middle">dispatch(SCREENING, question, handlers(…), trace)</text>
  <path d="M 451.28 286 L 305.235 286" class="back"/>
  <text x="378.258" y="279" class="answer" text-anchor="middle">AgentState</text>
  <path d="M 305.235 320 L 1000.47 320" class="send"/>
  <rect x="607.352" y="301" width="91" height="16" rx="2" class="sheet"/>
  <text x="652.852" y="313" class="said" text-anchor="middle">route(state)</text>
  <path d="M 1010.47 646 L 1036.47 646 L 1036.47 664 L 1015.47 664" class="send"/>
  <text x="1046.47" y="651" class="said" text-anchor="start">_read(state['question'])</text>
  <path d="M 1010.47 765 L 1036.47 765 L 1036.47 783 L 1015.47 783" class="send"/>
  <text x="1046.47" y="770" class="said" text-anchor="start">_asking(question)</text>
  <path d="M 1000.47 811 L 697.78 811" class="send"/>
  <rect x="796.875" y="792" width="104.5" height="16" rx="2" class="sheet"/>
  <text x="849.125" y="804" class="said" text-anchor="middle">outline(scope)</text>
  <path d="M 697.78 845 L 723.78 845 L 723.78 863 L 702.78 863" class="send"/>
  <text x="733.78" y="850" class="said" text-anchor="start">_of(INSTRUCTIONS)</text>
  <path d="M 697.78 891 L 1000.47 891" class="back"/>
  <text x="849.125" y="884" class="answer" text-anchor="middle">listed</text>
  <path d="M 1010.47 925 L 1222.47 925" class="send"/>
  <text x="1116.47" y="918" class="said" text-anchor="middle">complete(_asking(…), )</text>
  <path d="M 1222.47 959 L 1010.47 959" class="back"/>
  <text x="1116.47" y="952" class="answer" text-anchor="middle">said</text>
  <path d="M 1010.47 993 L 1036.47 993 L 1036.47 1011 L 1015.47 1011" class="send"/>
  <text x="1046.47" y="998" class="said" text-anchor="start">_named(said)</text>
  <path d="M 1000.47 1199 L 305.235 1199" class="back"/>
  <text x="652.852" y="1192" class="answer" text-anchor="middle">AgentState</text>
  <path d="M 305.235 1233 L 1387.83 1233" class="send"/>
  <rect x="801.033" y="1214" width="91" height="16" rx="2" class="sheet"/>
  <text x="846.533" y="1226" class="said" text-anchor="middle">focus(state)</text>
  <path d="M 1397.83 1314 L 1423.83 1314 L 1423.83 1332 L 1402.83 1332" class="send"/>
  <text x="1433.83" y="1319" class="said" text-anchor="start">_asked(contested)</text>
  <path d="M 1387.83 1360 L 697.78 1360" class="send"/>
  <rect x="990.555" y="1341" width="104.5" height="16" rx="2" class="sheet"/>
  <text x="1042.8" y="1353" class="said" text-anchor="middle">outline(scope)</text>
  <path d="M 697.78 1394 L 723.78 1394 L 723.78 1412 L 702.78 1412" class="send"/>
  <text x="733.78" y="1399" class="said" text-anchor="start">_of(INSTRUCTIONS)</text>
  <path d="M 1397.83 1440 L 1589.58 1440" class="send"/>
  <text x="1493.7" y="1433" class="said" text-anchor="middle">pause(Decision(…))</text>
  <path d="M 1589.58 1474 L 1397.83 1474" class="back"/>
  <text x="1493.7" y="1467" class="answer" text-anchor="middle">chosen</text>
  <path d="M 1397.83 1540 L 1423.83 1540 L 1423.83 1558 L 1402.83 1558" class="send"/>
  <text x="1433.83" y="1545" class="said" text-anchor="start">_brief(scopes, trace)</text>
  <path d="M 1397.83 1586 L 1423.83 1586 L 1423.83 1604 L 1402.83 1604" class="send"/>
  <text x="1433.83" y="1591" class="said" text-anchor="start">_recalled()</text>
  <path d="M 1397.83 1705 L 1736.31 1705" class="send"/>
  <rect x="1535.07" y="1686" width="64" height="16" rx="2" class="sheet"/>
  <text x="1567.07" y="1698" class="said" text-anchor="middle">recall()</text>
  <path d="M 1736.31 1739 L 1397.83 1739" class="back"/>
  <rect x="1508.07" y="1720" width="118" height="16" rx="2" class="sheet"/>
  <text x="1567.07" y="1732" class="answer" text-anchor="middle">tuple[Fact, ...]</text>
  <path d="M 1387.83 1805 L 697.78 1805" class="send"/>
  <rect x="970.305" y="1786" width="145" height="16" rx="2" class="sheet"/>
  <text x="1042.8" y="1798" class="said" text-anchor="middle">instructions(scopes)</text>
  <path d="M 697.78 1839 L 723.78 1839 L 723.78 1857 L 702.78 1857" class="send"/>
  <text x="733.78" y="1844" class="said" text-anchor="start">_of(INSTRUCTIONS)</text>
  <path d="M 697.78 1885 L 1387.83 1885" class="back"/>
  <rect x="997.305" y="1866" width="91" height="16" rx="2" class="sheet"/>
  <text x="1042.8" y="1878" class="answer" text-anchor="middle">instructions</text>
  <path d="M 1387.83 1919 L 697.78 1919" class="send"/>
  <rect x="950.055" y="1900" width="185.5" height="16" rx="2" class="sheet"/>
  <text x="1042.8" y="1912" class="said" text-anchor="middle">handlers(BRIEFING, scopes)</text>
  <path d="M 697.78 1953 L 723.78 1953 L 723.78 1971 L 702.78 1971" class="send"/>
  <text x="733.78" y="1958" class="said" text-anchor="start">_of(HANDLER)</text>
  <path d="M 1387.83 1999 L 880.155 1999" class="send"/>
  <rect x="970.367" y="1980" width="327.25" height="16" rx="2" class="sheet"/>
  <text x="1133.99" y="1992" class="said" text-anchor="middle">dispatch(BRIEFING, join(…), handlers(…), trace)</text>
  <path d="M 1387.83 2033 L 305.235 2033" class="back"/>
  <rect x="807.783" y="2014" width="77.5" height="16" rx="2" class="sheet"/>
  <text x="846.533" y="2026" class="answer" text-anchor="middle">AgentState</text>
  <path d="M 305.235 2067 L 1883.04 2067" class="send"/>
  <text x="1094.14" y="2060" class="said" text-anchor="middle">work(state)</text>
  <path d="M 1883.04 2101 L 305.235 2101" class="back"/>
  <text x="1094.14" y="2094" class="answer" text-anchor="middle">AgentState</text>
  <path d="M 305.235 2182 L 2004.93 2182" class="send"/>
  <text x="1155.08" y="2175" class="said" text-anchor="middle">model(state)</text>
  <path d="M 2014.93 2216 L 2040.93 2216 L 2040.93 2234 L 2019.93 2234" class="send"/>
  <text x="2050.93" y="2221" class="said" text-anchor="start">_prompt(state)</text>
  <path d="M 2014.93 2262 L 2040.93 2262 L 2040.93 2280 L 2019.93 2280" class="send"/>
  <text x="2050.93" y="2267" class="said" text-anchor="start">_offered(state)</text>
  <path d="M 2004.93 2308 L 697.78 2308" class="send"/>
  <rect x="1292.36" y="2289" width="118" height="16" rx="2" class="sheet"/>
  <text x="1351.36" y="2301" class="said" text-anchor="middle">tools(scoped(…))</text>
  <path d="M 697.78 2342 L 723.78 2342 L 723.78 2360 L 702.78 2360" class="send"/>
  <text x="733.78" y="2347" class="said" text-anchor="start">_of(TOOL)</text>
  <path d="M 697.78 2388 L 2004.93 2388" class="back"/>
  <rect x="1292.36" y="2369" width="118" height="16" rx="2" class="sheet"/>
  <text x="1351.36" y="2381" class="answer" text-anchor="middle">tuple[Tool, ...]</text>
  <path d="M 2004.93 2422 L 1232.47 2422" class="send"/>
  <rect x="1471.95" y="2403" width="293.5" height="16" rx="2" class="sheet"/>
  <text x="1618.7" y="2415" class="said" text-anchor="middle">complete(_prompt(…), _offered(…), on_text)</text>
  <path d="M 1232.47 2456 L 2004.93 2456" class="back"/>
  <text x="1618.7" y="2449" class="answer" text-anchor="middle">reply</text>
  <path d="M 2014.93 2537 L 2166.18 2537" class="send"/>
  <text x="2090.56" y="2530" class="said" text-anchor="middle">on_text(Aside(…))</text>
  <path d="M 2014.93 2603 L 2289.62 2603" class="send"/>
  <rect x="2100.03" y="2584" width="104.5" height="16" rx="2" class="sheet"/>
  <text x="2152.28" y="2596" class="said" text-anchor="middle">decided(reply)</text>
  <path d="M 2004.93 2637 L 305.235 2637" class="back"/>
  <text x="1155.08" y="2630" class="answer" text-anchor="middle">AgentState</text>
  <path d="M 305.235 2671 L 2406.85 2671" class="send"/>
  <rect x="1307.17" y="2652" width="97.75" height="16" rx="2" class="sheet"/>
  <text x="1356.04" y="2664" class="said" text-anchor="middle">router(state)</text>
  <path d="M 2406.85 2705 L 305.235 2705" class="back"/>
  <rect x="1290.29" y="2686" width="131.5" height="16" rx="2" class="sheet"/>
  <text x="1356.04" y="2698" class="answer" text-anchor="middle">done | tools | ask</text>
  <path d="M 305.235 2812 L 2528.74 2812" class="send"/>
  <rect x="1371.49" y="2793" width="91" height="16" rx="2" class="sheet"/>
  <text x="1416.99" y="2805" class="said" text-anchor="middle">tools(state)</text>
  <path d="M 2538.74 2893 L 2564.74 2893 L 2564.74 2911 L 2543.74 2911" class="send"/>
  <text x="2574.74" y="2898" class="said" text-anchor="start">_ran(call, scopes, trace, after)</text>
  <path d="M 2528.74 2939 L 697.78 2939" class="send"/>
  <rect x="1523.89" y="2920" width="178.75" height="16" rx="2" class="sheet"/>
  <text x="1613.26" y="2932" class="said" text-anchor="middle">handlers(CALLING, scopes)</text>
  <path d="M 697.78 2973 L 723.78 2973 L 723.78 2991 L 702.78 2991" class="send"/>
  <text x="733.78" y="2978" class="said" text-anchor="start">_of(HANDLER)</text>
  <path d="M 2528.74 3019 L 880.155 3019" class="send"/>
  <rect x="1540.82" y="3000" width="327.25" height="16" rx="2" class="sheet"/>
  <text x="1704.45" y="3012" class="said" text-anchor="middle">dispatch(CALLING, checked, handlers(…), before)</text>
  <path d="M 2538.74 3100 L 2804.74 3100" class="send"/>
  <text x="2671.74" y="3093" class="said" text-anchor="middle">Inside()</text>
  <path d="M 2538.74 3166 L 2931.06 3166" class="send"/>
  <text x="2734.9" y="3159" class="said" text-anchor="middle">collecting()</text>
  <path d="M 2538.74 3200 L 3080 3200" class="send"/>
  <rect x="2733.5" y="3181" width="151.75" height="16" rx="2" class="sheet"/>
  <text x="2809.37" y="3193" class="said" text-anchor="middle">execute(call, scopes)</text>
  <path d="M 3080 3234 L 697.78 3234" class="send"/>
  <rect x="1840.02" y="3215" width="97.75" height="16" rx="2" class="sheet"/>
  <text x="1888.89" y="3227" class="said" text-anchor="middle">tools(scopes)</text>
  <path d="M 697.78 3268 L 723.78 3268 L 723.78 3286 L 702.78 3286" class="send"/>
  <text x="733.78" y="3273" class="said" text-anchor="start">_of(TOOL)</text>
  <path d="M 697.78 3314 L 3080 3314" class="back"/>
  <rect x="1860.27" y="3295" width="57.25" height="16" rx="2" class="sheet"/>
  <text x="1888.89" y="3307" class="answer" text-anchor="middle">offered</text>
  <path d="M 2538.74 3348 L 3244.02 3348" class="send"/>
  <rect x="2832.38" y="3329" width="118" height="16" rx="2" class="sheet"/>
  <text x="2891.38" y="3341" class="said" text-anchor="middle">read_untrusted()</text>
  <path d="M 2528.74 3382 L 697.78 3382" class="send"/>
  <rect x="1517.14" y="3363" width="192.25" height="16" rx="2" class="sheet"/>
  <text x="1613.26" y="3375" class="said" text-anchor="middle">handlers(RETURNING, scopes)</text>
  <path d="M 697.78 3416 L 723.78 3416 L 723.78 3434 L 702.78 3434" class="send"/>
  <text x="733.78" y="3421" class="said" text-anchor="start">_of(HANDLER)</text>
  <path d="M 2528.74 3462 L 880.155 3462" class="send"/>
  <rect x="1540.82" y="3443" width="327.25" height="16" rx="2" class="sheet"/>
  <text x="1704.45" y="3455" class="said" text-anchor="middle">dispatch(RETURNING, result, handlers(…), after)</text>
  <path d="M 2538.74 3543 L 3377.88 3543" class="send"/>
  <rect x="2727.19" y="3524" width="462.25" height="16" rx="2" class="sheet"/>
  <text x="2958.31" y="3536" class="said" text-anchor="middle">Read(body=render(…), outcome=render(…), untrusted=inside.untrusted)</text>
  <path d="M 3377.88 3577 L 2538.74 3577" class="back"/>
  <text x="2958.31" y="3570" class="answer" text-anchor="middle">read</text>
  <path d="M 2538.74 3637 L 3377.88 3637" class="send"/>
  <rect x="2737.31" y="3618" width="442" height="16" rx="2" class="sheet"/>
  <text x="2958.31" y="3630" class="said" text-anchor="middle">Read(body=context.text, outcome=citable.summary, untrusted=True)</text>
  <path d="M 3377.88 3671 L 2538.74 3671" class="back"/>
  <text x="2958.31" y="3664" class="answer" text-anchor="middle">read</text>
  <path d="M 2538.74 3737 L 3474.04 3737" class="send"/>
  <text x="3006.39" y="3730" class="said" text-anchor="middle">told(result, read)</text>
  <path d="M 2538.74 3771 L 3570.2 3771" class="send"/>
  <rect x="2934.72" y="3752" width="239.5" height="16" rx="2" class="sheet"/>
  <text x="3054.47" y="3764" class="said" text-anchor="middle">used(call, result, read, tuple(…))</text>
  <path d="M 2528.74 3837 L 305.235 3837" class="back"/>
  <rect x="1378.24" y="3818" width="77.5" height="16" rx="2" class="sheet"/>
  <text x="1416.99" y="3830" class="answer" text-anchor="middle">AgentState</text>
  <path d="M 305.235 3897 L 3679.23 3897" class="send"/>
  <rect x="1953.48" y="3878" width="77.5" height="16" rx="2" class="sheet"/>
  <text x="1992.23" y="3890" class="said" text-anchor="middle">ask(state)</text>
  <path d="M 3689.23 4004 L 3908.98 4004" class="send"/>
  <text x="3799.1" y="3997" class="said" text-anchor="middle">decision_from(call.arguments)</text>
  <path d="M 3908.98 4038 L 3689.23 4038" class="back"/>
  <text x="3799.1" y="4031" class="answer" text-anchor="middle">decision</text>
  <path d="M 3679.23 4072 L 1599.58 4072" class="send"/>
  <text x="2639.4" y="4065" class="said" text-anchor="middle">pause(decision)</text>
  <path d="M 1599.58 4106 L 3679.23 4106" class="back"/>
  <text x="2639.4" y="4099" class="answer" text-anchor="middle">chosen</text>
  <path d="M 3679.23 4172 L 305.235 4172" class="back"/>
  <rect x="1953.48" y="4153" width="77.5" height="16" rx="2" class="sheet"/>
  <text x="1992.23" y="4165" class="answer" text-anchor="middle">AgentState</text>
  <path d="M 305.235 4206 L 2528.74 4206" class="send"/>
  <rect x="1371.49" y="4187" width="91" height="16" rx="2" class="sheet"/>
  <text x="1416.99" y="4199" class="said" text-anchor="middle">tools(state)</text>
  <path d="M 2538.74 4287 L 2564.74 4287 L 2564.74 4305 L 2543.74 4305" class="send"/>
  <text x="2574.74" y="4292" class="said" text-anchor="start">_ran(call, scopes, trace, after)</text>
  <path d="M 2528.74 4333 L 697.78 4333" class="send"/>
  <rect x="1523.89" y="4314" width="178.75" height="16" rx="2" class="sheet"/>
  <text x="1613.26" y="4326" class="said" text-anchor="middle">handlers(CALLING, scopes)</text>
  <path d="M 697.78 4367 L 723.78 4367 L 723.78 4385 L 702.78 4385" class="send"/>
  <text x="733.78" y="4372" class="said" text-anchor="start">_of(HANDLER)</text>
  <path d="M 2528.74 4413 L 880.155 4413" class="send"/>
  <rect x="1540.82" y="4394" width="327.25" height="16" rx="2" class="sheet"/>
  <text x="1704.45" y="4406" class="said" text-anchor="middle">dispatch(CALLING, checked, handlers(…), before)</text>
  <path d="M 2538.74 4494 L 2804.74 4494" class="send"/>
  <text x="2671.74" y="4487" class="said" text-anchor="middle">Inside()</text>
  <path d="M 2538.74 4560 L 2931.06 4560" class="send"/>
  <text x="2734.9" y="4553" class="said" text-anchor="middle">collecting()</text>
  <path d="M 2538.74 4594 L 3080 4594" class="send"/>
  <rect x="2733.5" y="4575" width="151.75" height="16" rx="2" class="sheet"/>
  <text x="2809.37" y="4587" class="said" text-anchor="middle">execute(call, scopes)</text>
  <path d="M 3080 4628 L 697.78 4628" class="send"/>
  <rect x="1840.02" y="4609" width="97.75" height="16" rx="2" class="sheet"/>
  <text x="1888.89" y="4621" class="said" text-anchor="middle">tools(scopes)</text>
  <path d="M 697.78 4662 L 723.78 4662 L 723.78 4680 L 702.78 4680" class="send"/>
  <text x="733.78" y="4667" class="said" text-anchor="start">_of(TOOL)</text>
  <path d="M 697.78 4708 L 3080 4708" class="back"/>
  <rect x="1860.27" y="4689" width="57.25" height="16" rx="2" class="sheet"/>
  <text x="1888.89" y="4701" class="answer" text-anchor="middle">offered</text>
  <path d="M 2538.74 4742 L 3244.02 4742" class="send"/>
  <rect x="2832.38" y="4723" width="118" height="16" rx="2" class="sheet"/>
  <text x="2891.38" y="4735" class="said" text-anchor="middle">read_untrusted()</text>
  <path d="M 2528.74 4776 L 697.78 4776" class="send"/>
  <rect x="1517.14" y="4757" width="192.25" height="16" rx="2" class="sheet"/>
  <text x="1613.26" y="4769" class="said" text-anchor="middle">handlers(RETURNING, scopes)</text>
  <path d="M 697.78 4810 L 723.78 4810 L 723.78 4828 L 702.78 4828" class="send"/>
  <text x="733.78" y="4815" class="said" text-anchor="start">_of(HANDLER)</text>
  <path d="M 2528.74 4856 L 880.155 4856" class="send"/>
  <rect x="1540.82" y="4837" width="327.25" height="16" rx="2" class="sheet"/>
  <text x="1704.45" y="4849" class="said" text-anchor="middle">dispatch(RETURNING, result, handlers(…), after)</text>
  <path d="M 2538.74 4937 L 3377.88 4937" class="send"/>
  <rect x="2727.19" y="4918" width="462.25" height="16" rx="2" class="sheet"/>
  <text x="2958.31" y="4930" class="said" text-anchor="middle">Read(body=render(…), outcome=render(…), untrusted=inside.untrusted)</text>
  <path d="M 3377.88 4971 L 2538.74 4971" class="back"/>
  <text x="2958.31" y="4964" class="answer" text-anchor="middle">read</text>
  <path d="M 2538.74 5031 L 3377.88 5031" class="send"/>
  <rect x="2737.31" y="5012" width="442" height="16" rx="2" class="sheet"/>
  <text x="2958.31" y="5024" class="said" text-anchor="middle">Read(body=context.text, outcome=citable.summary, untrusted=True)</text>
  <path d="M 3377.88 5065 L 2538.74 5065" class="back"/>
  <text x="2958.31" y="5058" class="answer" text-anchor="middle">read</text>
  <path d="M 2538.74 5131 L 3474.04 5131" class="send"/>
  <text x="3006.39" y="5124" class="said" text-anchor="middle">told(result, read)</text>
  <path d="M 2538.74 5165 L 3570.2 5165" class="send"/>
  <rect x="2934.72" y="5146" width="239.5" height="16" rx="2" class="sheet"/>
  <text x="3054.47" y="5158" class="said" text-anchor="middle">used(call, result, read, tuple(…))</text>
  <path d="M 2528.74 5231 L 305.235 5231" class="back"/>
  <rect x="1378.24" y="5212" width="77.5" height="16" rx="2" class="sheet"/>
  <text x="1416.99" y="5224" class="answer" text-anchor="middle">AgentState</text>
  <path d="M 305.235 5329 L 4061.25 5329" class="send"/>
  <rect x="2134.37" y="5310" width="97.75" height="16" rx="2" class="sheet"/>
  <text x="2183.24" y="5322" class="said" text-anchor="middle">answer(state)</text>
  <path d="M 4061.25 5363 L 305.235 5363" class="back"/>
  <rect x="2144.49" y="5344" width="77.5" height="16" rx="2" class="sheet"/>
  <text x="2183.24" y="5356" class="answer" text-anchor="middle">AgentState</text>
  <path d="M 295.235 5397 L 68.735 5397" class="back"/>
  <text x="181.985" y="5390" class="answer" text-anchor="middle">Iterator[AgentState]</text>
</svg>
