<svg xmlns="http://www.w3.org/2000/svg" viewBox="0 0 3623.42 4187" width="3623.42" height="4187" role="img" aria-label="A UML sequence diagram of round: 61 messages between agent: Agent, runner: LangGraphRunner, screen: ScreenStep, registry: Registry, dispatch, memory: SqliteStoreMemory, work: Named, model: ModelStep, chat_model: OpenRouterChatModel, on_text: TextSink, decided, router: Router, tools: ToolStep, Inside, collecting, tool_runtime: ToolRuntime, Read, told, used, ask: AskStep, decision_from, pause: Pause, answer: AnswerStep. Generated by scripts/gen_session_maps.py.">
  <style>
    text { font: 13px/1.4 -apple-system, "Segoe UI", Roboto, sans-serif; fill: #202124 }
    .role { font-weight: 600 }
    .kind { font-size: 11.5px; fill: #5f6368 }
    .head { fill: #f2f8fd; stroke: #2b7fc4; stroke-width: 1.4 }
    .life { stroke: #9aa0a6; stroke-width: 1.1; stroke-dasharray: 5 5 }
    .bar { fill: #ffffff; stroke: #2b7fc4; stroke-width: 1.1 }
    .send { stroke: #202124; stroke-width: 1.3; fill: none; marker-end: url(#sent) }
    .back { stroke: #6b7280; stroke-width: 1.1; fill: none;
            stroke-dasharray: 6 4; marker-end: url(#answered) }
    .said { font-size: 12.5px }
    .sheet { fill: #f8f9fa; stroke: none }
    .answer { font-size: 11.5px; fill: #6b7280; font-style: italic }
    .frame { fill: none; stroke: #9aa0a6; stroke-width: 1.1 }
    .tab { fill: #f8f9fa; stroke: #9aa0a6; stroke-width: 1.1 }
    .operator { font-size: 11px; font-weight: 600; fill: #5f6368;
                letter-spacing: .03em }
    .guard { font-size: 11.5px; fill: #14425f; font-style: italic }
    .split { stroke: #9aa0a6; stroke-width: 1; stroke-dasharray: 4 4; fill: none }
    @media (prefers-color-scheme: dark) {
      text { fill: #e8eaed }
      .kind { fill: #9aa0a6 }
      .head { fill: #10283a; stroke: #6fb6ea }
      .bar { fill: #303134; stroke: #6fb6ea }
      .send { stroke: #e8eaed }
      .sheet { fill: #2b2c2f }
      .back { stroke: #bdc1c6 }
      .answer { fill: #bdc1c6 }
      .frame, .split { stroke: #bdc1c6 }
      .tab { fill: #2b2c2f; stroke: #bdc1c6 }
      .operator { fill: #bdc1c6 }
      .guard { fill: #cfe6f7 }
    }
  </style>
  <defs><marker id="sent" viewBox="0 0 10 10" refX="9" refY="5" markerWidth="8" markerHeight="8" orient="auto-start-reverse"><path d="M 0 1 L 9 5 L 0 9 z" fill="context-stroke"/></marker><marker id="answered" viewBox="0 0 10 10" refX="9" refY="5" markerWidth="9" markerHeight="9" orient="auto-start-reverse"><path d="M 0 1 L 9 5 L 0 9" fill="none" stroke="context-stroke" stroke-width="1.4"/></marker></defs>
  <rect x="12" y="378" width="3599.42" height="153" rx="2" class="frame"/>
  <rect x="12" y="378" width="41.14" height="19" rx="2" class="tab"/>
  <text x="22" y="392" class="operator" text-anchor="start">alt</text>
  <text x="65.14" y="411" class="guard" text-anchor="start">[memory is None]</text>
  <path d="M 12 423 L 3611.42 423" class="split"/>
  <text x="65.14" y="437" class="guard" text-anchor="start">[else]</text>
  <rect x="21" y="1236" width="3581.42" height="93" rx="2" class="frame"/>
  <rect x="21" y="1236" width="41.14" height="19" rx="2" class="tab"/>
  <text x="31" y="1250" class="operator" text-anchor="start">alt</text>
  <text x="74.14" y="1269" class="guard" text-anchor="start">[not reply.is_final and reply.text]</text>
  <rect x="39" y="1799" width="3545.42" height="93" rx="2" class="frame"/>
  <rect x="39" y="1799" width="53.9" height="19" rx="2" class="tab"/>
  <text x="49" y="1813" class="operator" text-anchor="start">break</text>
  <text x="104.9" y="1832" class="guard" text-anchor="start">[ToolRefusal]</text>
  <rect x="39" y="2242" width="3545.42" height="221" rx="2" class="frame"/>
  <rect x="39" y="2242" width="41.14" height="19" rx="2" class="tab"/>
  <text x="49" y="2256" class="operator" text-anchor="start">alt</text>
  <text x="92.14" y="2275" class="guard" text-anchor="start">[citable is None]</text>
  <path d="M 39 2355 L 3584.42 2355" class="split"/>
  <text x="92.14" y="2369" class="guard" text-anchor="start">[else]</text>
  <rect x="30" y="1592" width="3563.42" height="971" rx="2" class="frame"/>
  <rect x="30" y="1592" width="47.52" height="19" rx="2" class="tab"/>
  <text x="40" y="1606" class="operator" text-anchor="start">loop</text>
  <text x="89.52" y="1625" class="guard" text-anchor="start">[_requested_calls(state)]</text>
  <rect x="30" y="2677" width="3563.42" height="221" rx="2" class="frame"/>
  <rect x="30" y="2677" width="41.14" height="19" rx="2" class="tab"/>
  <text x="40" y="2691" class="operator" text-anchor="start">alt</text>
  <text x="83.14" y="2710" class="guard" text-anchor="start">[call is None]</text>
  <path d="M 30 2722 L 3593.42 2722" class="split"/>
  <text x="83.14" y="2736" class="guard" text-anchor="start">[else]</text>
  <rect x="39" y="3193" width="3545.42" height="93" rx="2" class="frame"/>
  <rect x="39" y="3193" width="53.9" height="19" rx="2" class="tab"/>
  <text x="49" y="3207" class="operator" text-anchor="start">break</text>
  <text x="104.9" y="3226" class="guard" text-anchor="start">[ToolRefusal]</text>
  <rect x="39" y="3636" width="3545.42" height="221" rx="2" class="frame"/>
  <rect x="39" y="3636" width="41.14" height="19" rx="2" class="tab"/>
  <text x="49" y="3650" class="operator" text-anchor="start">alt</text>
  <text x="92.14" y="3669" class="guard" text-anchor="start">[citable is None]</text>
  <path d="M 39 3749 L 3584.42 3749" class="split"/>
  <text x="92.14" y="3763" class="guard" text-anchor="start">[else]</text>
  <rect x="30" y="2986" width="3563.42" height="971" rx="2" class="frame"/>
  <rect x="30" y="2986" width="47.52" height="19" rx="2" class="tab"/>
  <text x="40" y="3000" class="operator" text-anchor="start">loop</text>
  <text x="89.52" y="3019" class="guard" text-anchor="start">[_requested_calls(state)]</text>
  <rect x="21" y="1485" width="3581.42" height="2538" rx="2" class="frame"/>
  <rect x="21" y="1485" width="41.14" height="19" rx="2" class="tab"/>
  <text x="31" y="1499" class="operator" text-anchor="start">alt</text>
  <text x="74.14" y="1518" class="guard" text-anchor="start">[done]</text>
  <path d="M 21 1530 L 3602.42 1530" class="split"/>
  <text x="74.14" y="1544" class="guard" text-anchor="start">[tools]</text>
  <path d="M 21 2615 L 3602.42 2615" class="split"/>
  <text x="74.14" y="2629" class="guard" text-anchor="start">[ask]</text>
  <rect x="12" y="881" width="3599.42" height="3174" rx="2" class="frame"/>
  <rect x="12" y="881" width="47.52" height="19" rx="2" class="tab"/>
  <text x="22" y="895" class="operator" text-anchor="start">loop</text>
  <text x="71.52" y="914" class="guard" text-anchor="start">[router(state) != "done"]</text>
  <rect x="24" y="24" width="79.47" height="46" rx="3" class="head"/>
  <text x="63.735" y="44" class="role" text-anchor="middle">agent</text>
  <text x="63.735" y="60" class="kind" text-anchor="middle">: Agent</text>
  <path d="M 63.735 70 L 63.735 4177" class="life"/>
  <rect x="229.45" y="24" width="141.57" height="46" rx="3" class="head"/>
  <text x="300.235" y="44" class="role" text-anchor="middle">runner</text>
  <text x="300.235" y="60" class="kind" text-anchor="middle">: LangGraphRunner</text>
  <path d="M 300.235 70 L 300.235 4177" class="life"/>
  <rect x="401.02" y="24" width="110.52" height="46" rx="3" class="head"/>
  <text x="456.28" y="44" class="role" text-anchor="middle">screen</text>
  <text x="456.28" y="60" class="kind" text-anchor="middle">: ScreenStep</text>
  <path d="M 456.28 70 L 456.28 4177" class="life"/>
  <rect x="623.48" y="24" width="98.1" height="46" rx="3" class="head"/>
  <text x="672.53" y="44" class="role" text-anchor="middle">registry</text>
  <text x="672.53" y="60" class="kind" text-anchor="middle">: Registry</text>
  <path d="M 672.53 70 L 672.53 4177" class="life"/>
  <rect x="806.745" y="24" width="96.32" height="46" rx="3" class="head"/>
  <text x="854.905" y="44" class="role" text-anchor="middle">dispatch</text>
  <path d="M 854.905 70 L 854.905 4177" class="life"/>
  <rect x="933.065" y="24" width="153.99" height="46" rx="3" class="head"/>
  <text x="1010.06" y="44" class="role" text-anchor="middle">memory</text>
  <text x="1010.06" y="60" class="kind" text-anchor="middle">: SqliteStoreMemory</text>
  <path d="M 1010.06 70 L 1010.06 4177" class="life"/>
  <rect x="1117.06" y="24" width="79.47" height="46" rx="3" class="head"/>
  <text x="1156.79" y="44" class="role" text-anchor="middle">work</text>
  <text x="1156.79" y="60" class="kind" text-anchor="middle">: Named</text>
  <path d="M 1156.79 70 L 1156.79 4177" class="life"/>
  <rect x="1226.53" y="24" width="104.31" height="46" rx="3" class="head"/>
  <text x="1278.68" y="44" class="role" text-anchor="middle">model</text>
  <text x="1278.68" y="60" class="kind" text-anchor="middle">: ModelStep</text>
  <path d="M 1278.68 70 L 1278.68 4177" class="life"/>
  <rect x="1512.98" y="24" width="166.41" height="46" rx="3" class="head"/>
  <text x="1596.18" y="44" class="role" text-anchor="middle">chat_model</text>
  <text x="1596.18" y="60" class="kind" text-anchor="middle">: OpenRouterChatModel</text>
  <path d="M 1596.18 70 L 1596.18 4177" class="life"/>
  <rect x="1709.38" y="24" width="98.1" height="46" rx="3" class="head"/>
  <text x="1758.43" y="44" class="role" text-anchor="middle">on_text</text>
  <text x="1758.43" y="60" class="kind" text-anchor="middle">: TextSink</text>
  <path d="M 1758.43 70 L 1758.43 4177" class="life"/>
  <rect x="1837.48" y="24" width="88.78" height="46" rx="3" class="head"/>
  <text x="1881.88" y="44" class="role" text-anchor="middle">decided</text>
  <path d="M 1881.88 70 L 1881.88 4177" class="life"/>
  <rect x="1956.27" y="24" width="85.68" height="46" rx="3" class="head"/>
  <text x="1999.11" y="44" class="role" text-anchor="middle">router</text>
  <text x="1999.11" y="60" class="kind" text-anchor="middle">: Router</text>
  <path d="M 1999.11 70 L 1999.11 4177" class="life"/>
  <rect x="2071.94" y="24" width="98.1" height="46" rx="3" class="head"/>
  <text x="2120.99" y="44" class="role" text-anchor="middle">tools</text>
  <text x="2120.99" y="60" class="kind" text-anchor="middle">: ToolStep</text>
  <path d="M 2120.99 70 L 2120.99 4177" class="life"/>
  <rect x="2309.12" y="24" width="81.24" height="46" rx="3" class="head"/>
  <text x="2349.74" y="44" class="role" text-anchor="middle">Inside</text>
  <path d="M 2349.74 70 L 2349.74 4177" class="life"/>
  <rect x="2420.37" y="24" width="111.4" height="46" rx="3" class="head"/>
  <text x="2476.07" y="44" class="role" text-anchor="middle">collecting</text>
  <path d="M 2476.07 70 L 2476.07 4177" class="life"/>
  <rect x="2561.77" y="24" width="126.48" height="46" rx="3" class="head"/>
  <text x="2625.01" y="44" class="role" text-anchor="middle">tool_runtime</text>
  <text x="2625.01" y="60" class="kind" text-anchor="middle">: ToolRuntime</text>
  <path d="M 2625.01 70 L 2625.01 4177" class="life"/>
  <rect x="2718.25" y="24" width="66.16" height="46" rx="3" class="head"/>
  <text x="2751.33" y="44" class="role" text-anchor="middle">Read</text>
  <path d="M 2751.33 70 L 2751.33 4177" class="life"/>
  <rect x="2814.41" y="24" width="66.16" height="46" rx="3" class="head"/>
  <text x="2847.49" y="44" class="role" text-anchor="middle">told</text>
  <path d="M 2847.49 70 L 2847.49 4177" class="life"/>
  <rect x="2910.57" y="24" width="66.16" height="46" rx="3" class="head"/>
  <text x="2943.64" y="44" class="role" text-anchor="middle">used</text>
  <path d="M 2943.64 70 L 2943.64 4177" class="life"/>
  <rect x="3006.72" y="24" width="91.89" height="46" rx="3" class="head"/>
  <text x="3052.67" y="44" class="role" text-anchor="middle">ask</text>
  <text x="3052.67" y="60" class="kind" text-anchor="middle">: AskStep</text>
  <path d="M 3052.67 70 L 3052.67 4177" class="life"/>
  <rect x="3215.41" y="24" width="134.02" height="46" rx="3" class="head"/>
  <text x="3282.42" y="44" class="role" text-anchor="middle">decision_from</text>
  <path d="M 3282.42 70 L 3282.42 4177" class="life"/>
  <rect x="3379.43" y="24" width="79.47" height="46" rx="3" class="head"/>
  <text x="3419.16" y="44" class="role" text-anchor="middle">pause</text>
  <text x="3419.16" y="60" class="kind" text-anchor="middle">: Pause</text>
  <path d="M 3419.16 70 L 3419.16 4177" class="life"/>
  <rect x="3488.9" y="24" width="110.52" height="46" rx="3" class="head"/>
  <text x="3544.16" y="44" class="role" text-anchor="middle">answer</text>
  <text x="3544.16" y="60" class="kind" text-anchor="middle">: AnswerStep</text>
  <path d="M 3544.16 70 L 3544.16 4177" class="life"/>
  <rect x="1005.06" y="451" width="10" height="34" rx="1" class="bar"/>
  <rect x="667.53" y="551" width="10" height="80" rx="1" class="bar"/>
  <rect x="451.28" y="138" width="10" height="641" rx="1" class="bar"/>
  <rect x="1151.79" y="813" width="10" height="34" rx="1" class="bar"/>
  <rect x="667.53" y="1054" width="10" height="80" rx="1" class="bar"/>
  <rect x="1591.18" y="1168" width="10" height="34" rx="1" class="bar"/>
  <rect x="1273.68" y="928" width="10" height="455" rx="1" class="bar"/>
  <rect x="1994.11" y="1417" width="10" height="34" rx="1" class="bar"/>
  <rect x="667.53" y="1980" width="10" height="80" rx="1" class="bar"/>
  <rect x="849.905" y="2174" width="10" height="34" rx="1" class="bar"/>
  <rect x="2746.33" y="2289" width="10" height="34" rx="1" class="bar"/>
  <rect x="2746.33" y="2383" width="10" height="34" rx="1" class="bar"/>
  <rect x="2115.99" y="1558" width="10" height="1025" rx="1" class="bar"/>
  <rect x="3277.42" y="2750" width="10" height="34" rx="1" class="bar"/>
  <rect x="3414.16" y="2818" width="10" height="34" rx="1" class="bar"/>
  <rect x="3047.67" y="2643" width="10" height="275" rx="1" class="bar"/>
  <rect x="667.53" y="3374" width="10" height="80" rx="1" class="bar"/>
  <rect x="849.905" y="3568" width="10" height="34" rx="1" class="bar"/>
  <rect x="2746.33" y="3683" width="10" height="34" rx="1" class="bar"/>
  <rect x="2746.33" y="3777" width="10" height="34" rx="1" class="bar"/>
  <rect x="2115.99" y="2952" width="10" height="1025" rx="1" class="bar"/>
  <rect x="3539.16" y="4075" width="10" height="34" rx="1" class="bar"/>
  <rect x="295.235" y="104" width="10" height="4039" rx="1" class="bar"/>
  <rect x="667.53" y="172" width="10" height="14" rx="1" class="bar"/>
  <rect x="667.53" y="206" width="10" height="14" rx="1" class="bar"/>
  <rect x="849.905" y="252" width="10" height="14" rx="1" class="bar"/>
  <rect x="451.28" y="286" width="10" height="14" rx="1" class="bar"/>
  <rect x="451.28" y="332" width="10" height="14" rx="1" class="bar"/>
  <rect x="667.53" y="585" width="10" height="14" rx="1" class="bar"/>
  <rect x="667.53" y="665" width="10" height="14" rx="1" class="bar"/>
  <rect x="667.53" y="699" width="10" height="14" rx="1" class="bar"/>
  <rect x="849.905" y="745" width="10" height="14" rx="1" class="bar"/>
  <rect x="1273.68" y="962" width="10" height="14" rx="1" class="bar"/>
  <rect x="1273.68" y="1008" width="10" height="14" rx="1" class="bar"/>
  <rect x="667.53" y="1088" width="10" height="14" rx="1" class="bar"/>
  <rect x="1753.43" y="1283" width="10" height="14" rx="1" class="bar"/>
  <rect x="1876.88" y="1349" width="10" height="14" rx="1" class="bar"/>
  <rect x="2115.99" y="1639" width="10" height="14" rx="1" class="bar"/>
  <rect x="667.53" y="1685" width="10" height="14" rx="1" class="bar"/>
  <rect x="667.53" y="1719" width="10" height="14" rx="1" class="bar"/>
  <rect x="849.905" y="1765" width="10" height="14" rx="1" class="bar"/>
  <rect x="2344.74" y="1846" width="10" height="14" rx="1" class="bar"/>
  <rect x="2471.07" y="1912" width="10" height="14" rx="1" class="bar"/>
  <rect x="2620.01" y="1946" width="10" height="14" rx="1" class="bar"/>
  <rect x="667.53" y="2014" width="10" height="14" rx="1" class="bar"/>
  <rect x="667.53" y="2094" width="10" height="14" rx="1" class="bar"/>
  <rect x="667.53" y="2128" width="10" height="14" rx="1" class="bar"/>
  <rect x="2842.49" y="2483" width="10" height="14" rx="1" class="bar"/>
  <rect x="2938.64" y="2517" width="10" height="14" rx="1" class="bar"/>
  <rect x="2115.99" y="3033" width="10" height="14" rx="1" class="bar"/>
  <rect x="667.53" y="3079" width="10" height="14" rx="1" class="bar"/>
  <rect x="667.53" y="3113" width="10" height="14" rx="1" class="bar"/>
  <rect x="849.905" y="3159" width="10" height="14" rx="1" class="bar"/>
  <rect x="2344.74" y="3240" width="10" height="14" rx="1" class="bar"/>
  <rect x="2471.07" y="3306" width="10" height="14" rx="1" class="bar"/>
  <rect x="2620.01" y="3340" width="10" height="14" rx="1" class="bar"/>
  <rect x="667.53" y="3408" width="10" height="14" rx="1" class="bar"/>
  <rect x="667.53" y="3488" width="10" height="14" rx="1" class="bar"/>
  <rect x="667.53" y="3522" width="10" height="14" rx="1" class="bar"/>
  <rect x="2842.49" y="3877" width="10" height="14" rx="1" class="bar"/>
  <rect x="2938.64" y="3911" width="10" height="14" rx="1" class="bar"/>
  <path d="M 68.735 104 L 295.235 104" class="send"/>
  <text x="181.985" y="97" class="said" text-anchor="middle">run(state, thread_id, on_text)</text>
  <path d="M 305.235 138 L 451.28 138" class="send"/>
  <text x="378.258" y="131" class="said" text-anchor="middle">screen(state)</text>
  <path d="M 461.28 172 L 667.53 172" class="send"/>
  <text x="564.405" y="165" class="said" text-anchor="middle">handlers(SCREENING, scopes)</text>
  <path d="M 677.53 206 L 703.53 206 L 703.53 224 L 682.53 224" class="send"/>
  <text x="713.53" y="211" class="said" text-anchor="start">_of(HANDLER)</text>
  <path d="M 461.28 252 L 849.905 252" class="send"/>
  <rect x="485.217" y="233" width="340.75" height="16" rx="2" class="sheet"/>
  <text x="655.592" y="245" class="said" text-anchor="middle">dispatch(SCREENING, question, handlers(…), trace)</text>
  <path d="M 461.28 286 L 487.28 286 L 487.28 304 L 466.28 304" class="send"/>
  <text x="497.28" y="291" class="said" text-anchor="start">_brief(scopes, trace)</text>
  <path d="M 461.28 332 L 487.28 332 L 487.28 350 L 466.28 350" class="send"/>
  <text x="497.28" y="337" class="said" text-anchor="start">_recalled()</text>
  <path d="M 461.28 451 L 1005.06 451" class="send"/>
  <text x="733.17" y="444" class="said" text-anchor="middle">recall()</text>
  <path d="M 1005.06 485 L 461.28 485" class="back"/>
  <text x="733.17" y="478" class="answer" text-anchor="middle">tuple[Fact, ...]</text>
  <path d="M 461.28 551 L 667.53 551" class="send"/>
  <text x="564.405" y="544" class="said" text-anchor="middle">instructions(scopes)</text>
  <path d="M 677.53 585 L 703.53 585 L 703.53 603 L 682.53 603" class="send"/>
  <text x="713.53" y="590" class="said" text-anchor="start">_of(INSTRUCTIONS)</text>
  <path d="M 667.53 631 L 461.28 631" class="back"/>
  <text x="564.405" y="624" class="answer" text-anchor="middle">instructions</text>
  <path d="M 461.28 665 L 667.53 665" class="send"/>
  <text x="564.405" y="658" class="said" text-anchor="middle">handlers(BRIEFING, scopes)</text>
  <path d="M 677.53 699 L 703.53 699 L 703.53 717 L 682.53 717" class="send"/>
  <text x="713.53" y="704" class="said" text-anchor="start">_of(HANDLER)</text>
  <path d="M 461.28 745 L 849.905 745" class="send"/>
  <rect x="491.967" y="726" width="327.25" height="16" rx="2" class="sheet"/>
  <text x="655.592" y="738" class="said" text-anchor="middle">dispatch(BRIEFING, join(…), handlers(…), trace)</text>
  <path d="M 451.28 779 L 305.235 779" class="back"/>
  <text x="378.258" y="772" class="answer" text-anchor="middle">AgentState</text>
  <path d="M 305.235 813 L 1151.79 813" class="send"/>
  <text x="728.513" y="806" class="said" text-anchor="middle">work(state)</text>
  <path d="M 1151.79 847 L 305.235 847" class="back"/>
  <text x="728.513" y="840" class="answer" text-anchor="middle">AgentState</text>
  <path d="M 305.235 928 L 1273.68 928" class="send"/>
  <text x="789.457" y="921" class="said" text-anchor="middle">model(state)</text>
  <path d="M 1283.68 962 L 1309.68 962 L 1309.68 980 L 1288.68 980" class="send"/>
  <text x="1319.68" y="967" class="said" text-anchor="start">_prompt(state)</text>
  <path d="M 1283.68 1008 L 1309.68 1008 L 1309.68 1026 L 1288.68 1026" class="send"/>
  <text x="1319.68" y="1013" class="said" text-anchor="start">_offered(state)</text>
  <path d="M 1273.68 1054 L 677.53 1054" class="send"/>
  <rect x="916.605" y="1035" width="118" height="16" rx="2" class="sheet"/>
  <text x="975.605" y="1047" class="said" text-anchor="middle">tools(scoped(…))</text>
  <path d="M 677.53 1088 L 703.53 1088 L 703.53 1106 L 682.53 1106" class="send"/>
  <text x="713.53" y="1093" class="said" text-anchor="start">_of(TOOL)</text>
  <path d="M 677.53 1134 L 1273.68 1134" class="back"/>
  <rect x="916.605" y="1115" width="118" height="16" rx="2" class="sheet"/>
  <text x="975.605" y="1127" class="answer" text-anchor="middle">tuple[Tool, ...]</text>
  <path d="M 1283.68 1168 L 1591.18 1168" class="send"/>
  <text x="1437.43" y="1161" class="said" text-anchor="middle">complete(_prompt(…), _offered(…), on_text)</text>
  <path d="M 1591.18 1202 L 1283.68 1202" class="back"/>
  <text x="1437.43" y="1195" class="answer" text-anchor="middle">reply</text>
  <path d="M 1283.68 1283 L 1753.43 1283" class="send"/>
  <text x="1518.56" y="1276" class="said" text-anchor="middle">on_text(Aside(…))</text>
  <path d="M 1283.68 1349 L 1876.88 1349" class="send"/>
  <rect x="1528.03" y="1330" width="104.5" height="16" rx="2" class="sheet"/>
  <text x="1580.28" y="1342" class="said" text-anchor="middle">decided(reply)</text>
  <path d="M 1273.68 1383 L 305.235 1383" class="back"/>
  <text x="789.457" y="1376" class="answer" text-anchor="middle">AgentState</text>
  <path d="M 305.235 1417 L 1994.11 1417" class="send"/>
  <rect x="1100.8" y="1398" width="97.75" height="16" rx="2" class="sheet"/>
  <text x="1149.67" y="1410" class="said" text-anchor="middle">router(state)</text>
  <path d="M 1994.11 1451 L 305.235 1451" class="back"/>
  <rect x="1083.92" y="1432" width="131.5" height="16" rx="2" class="sheet"/>
  <text x="1149.67" y="1444" class="answer" text-anchor="middle">done | tools | ask</text>
  <path d="M 305.235 1558 L 2115.99 1558" class="send"/>
  <text x="1210.62" y="1551" class="said" text-anchor="middle">tools(state)</text>
  <path d="M 2125.99 1639 L 2151.99 1639 L 2151.99 1657 L 2130.99 1657" class="send"/>
  <text x="2161.99" y="1644" class="said" text-anchor="start">_ran(call, scopes, trace)</text>
  <path d="M 2115.99 1685 L 677.53 1685" class="send"/>
  <text x="1396.76" y="1678" class="said" text-anchor="middle">handlers(CALLING, scopes)</text>
  <path d="M 677.53 1719 L 703.53 1719 L 703.53 1737 L 682.53 1737" class="send"/>
  <text x="713.53" y="1724" class="said" text-anchor="start">_of(HANDLER)</text>
  <path d="M 2115.99 1765 L 859.905 1765" class="send"/>
  <rect x="1337.82" y="1746" width="300.25" height="16" rx="2" class="sheet"/>
  <text x="1487.95" y="1758" class="said" text-anchor="middle">dispatch(CALLING, call, handlers(…), trace)</text>
  <path d="M 2125.99 1846 L 2344.74 1846" class="send"/>
  <text x="2235.37" y="1839" class="said" text-anchor="middle">Inside()</text>
  <path d="M 2125.99 1912 L 2471.07 1912" class="send"/>
  <text x="2298.53" y="1905" class="said" text-anchor="middle">collecting()</text>
  <path d="M 2125.99 1946 L 2620.01 1946" class="send"/>
  <rect x="2297.12" y="1927" width="151.75" height="16" rx="2" class="sheet"/>
  <text x="2373" y="1939" class="said" text-anchor="middle">execute(call, scopes)</text>
  <path d="M 2620.01 1980 L 677.53 1980" class="send"/>
  <text x="1648.77" y="1973" class="said" text-anchor="middle">tools(scopes)</text>
  <path d="M 677.53 2014 L 703.53 2014 L 703.53 2032 L 682.53 2032" class="send"/>
  <text x="713.53" y="2019" class="said" text-anchor="start">_of(TOOL)</text>
  <path d="M 677.53 2060 L 2620.01 2060" class="back"/>
  <text x="1648.77" y="2053" class="answer" text-anchor="middle">offered</text>
  <path d="M 2115.99 2094 L 677.53 2094" class="send"/>
  <text x="1396.76" y="2087" class="said" text-anchor="middle">handlers(RETURNING, scopes)</text>
  <path d="M 677.53 2128 L 703.53 2128 L 703.53 2146 L 682.53 2146" class="send"/>
  <text x="713.53" y="2133" class="said" text-anchor="start">_of(HANDLER)</text>
  <path d="M 2115.99 2174 L 859.905 2174" class="send"/>
  <rect x="1324.32" y="2155" width="327.25" height="16" rx="2" class="sheet"/>
  <text x="1487.95" y="2167" class="said" text-anchor="middle">dispatch(RETURNING, result, handlers(…), trace)</text>
  <path d="M 859.905 2208 L 2115.99 2208" class="back"/>
  <text x="1487.95" y="2201" class="answer" text-anchor="middle">amended</text>
  <path d="M 2125.99 2289 L 2746.33 2289" class="send"/>
  <rect x="2205.03" y="2270" width="462.25" height="16" rx="2" class="sheet"/>
  <text x="2436.16" y="2282" class="said" text-anchor="middle">Read(body=render(…), outcome=render(…), untrusted=inside.untrusted)</text>
  <path d="M 2746.33 2323 L 2125.99 2323" class="back"/>
  <text x="2436.16" y="2316" class="answer" text-anchor="middle">read</text>
  <path d="M 2125.99 2383 L 2746.33 2383" class="send"/>
  <rect x="2215.16" y="2364" width="442" height="16" rx="2" class="sheet"/>
  <text x="2436.16" y="2376" class="said" text-anchor="middle">Read(body=context.text, outcome=citable.summary, untrusted=True)</text>
  <path d="M 2746.33 2417 L 2125.99 2417" class="back"/>
  <text x="2436.16" y="2410" class="answer" text-anchor="middle">read</text>
  <path d="M 2125.99 2483 L 2842.49 2483" class="send"/>
  <rect x="2418.49" y="2464" width="131.5" height="16" rx="2" class="sheet"/>
  <text x="2484.24" y="2476" class="said" text-anchor="middle">told(result, read)</text>
  <path d="M 2125.99 2517 L 2938.64 2517" class="send"/>
  <rect x="2412.57" y="2498" width="239.5" height="16" rx="2" class="sheet"/>
  <text x="2532.32" y="2510" class="said" text-anchor="middle">used(call, result, read, tuple(…))</text>
  <path d="M 2115.99 2583 L 305.235 2583" class="back"/>
  <text x="1210.62" y="2576" class="answer" text-anchor="middle">AgentState</text>
  <path d="M 305.235 2643 L 3047.67 2643" class="send"/>
  <text x="1676.45" y="2636" class="said" text-anchor="middle">ask(state)</text>
  <path d="M 3057.67 2750 L 3277.42 2750" class="send"/>
  <text x="3167.55" y="2743" class="said" text-anchor="middle">decision_from(call.arguments)</text>
  <path d="M 3277.42 2784 L 3057.67 2784" class="back"/>
  <text x="3167.55" y="2777" class="answer" text-anchor="middle">decision</text>
  <path d="M 3057.67 2818 L 3414.16 2818" class="send"/>
  <rect x="3180.29" y="2799" width="111.25" height="16" rx="2" class="sheet"/>
  <text x="3235.92" y="2811" class="said" text-anchor="middle">pause(decision)</text>
  <path d="M 3414.16 2852 L 3057.67 2852" class="back"/>
  <text x="3235.92" y="2845" class="answer" text-anchor="middle">chosen</text>
  <path d="M 3047.67 2918 L 305.235 2918" class="back"/>
  <text x="1676.45" y="2911" class="answer" text-anchor="middle">AgentState</text>
  <path d="M 305.235 2952 L 2115.99 2952" class="send"/>
  <text x="1210.62" y="2945" class="said" text-anchor="middle">tools(state)</text>
  <path d="M 2125.99 3033 L 2151.99 3033 L 2151.99 3051 L 2130.99 3051" class="send"/>
  <text x="2161.99" y="3038" class="said" text-anchor="start">_ran(call, scopes, trace)</text>
  <path d="M 2115.99 3079 L 677.53 3079" class="send"/>
  <text x="1396.76" y="3072" class="said" text-anchor="middle">handlers(CALLING, scopes)</text>
  <path d="M 677.53 3113 L 703.53 3113 L 703.53 3131 L 682.53 3131" class="send"/>
  <text x="713.53" y="3118" class="said" text-anchor="start">_of(HANDLER)</text>
  <path d="M 2115.99 3159 L 859.905 3159" class="send"/>
  <rect x="1337.82" y="3140" width="300.25" height="16" rx="2" class="sheet"/>
  <text x="1487.95" y="3152" class="said" text-anchor="middle">dispatch(CALLING, call, handlers(…), trace)</text>
  <path d="M 2125.99 3240 L 2344.74 3240" class="send"/>
  <text x="2235.37" y="3233" class="said" text-anchor="middle">Inside()</text>
  <path d="M 2125.99 3306 L 2471.07 3306" class="send"/>
  <text x="2298.53" y="3299" class="said" text-anchor="middle">collecting()</text>
  <path d="M 2125.99 3340 L 2620.01 3340" class="send"/>
  <rect x="2297.12" y="3321" width="151.75" height="16" rx="2" class="sheet"/>
  <text x="2373" y="3333" class="said" text-anchor="middle">execute(call, scopes)</text>
  <path d="M 2620.01 3374 L 677.53 3374" class="send"/>
  <text x="1648.77" y="3367" class="said" text-anchor="middle">tools(scopes)</text>
  <path d="M 677.53 3408 L 703.53 3408 L 703.53 3426 L 682.53 3426" class="send"/>
  <text x="713.53" y="3413" class="said" text-anchor="start">_of(TOOL)</text>
  <path d="M 677.53 3454 L 2620.01 3454" class="back"/>
  <text x="1648.77" y="3447" class="answer" text-anchor="middle">offered</text>
  <path d="M 2115.99 3488 L 677.53 3488" class="send"/>
  <text x="1396.76" y="3481" class="said" text-anchor="middle">handlers(RETURNING, scopes)</text>
  <path d="M 677.53 3522 L 703.53 3522 L 703.53 3540 L 682.53 3540" class="send"/>
  <text x="713.53" y="3527" class="said" text-anchor="start">_of(HANDLER)</text>
  <path d="M 2115.99 3568 L 859.905 3568" class="send"/>
  <rect x="1324.32" y="3549" width="327.25" height="16" rx="2" class="sheet"/>
  <text x="1487.95" y="3561" class="said" text-anchor="middle">dispatch(RETURNING, result, handlers(…), trace)</text>
  <path d="M 859.905 3602 L 2115.99 3602" class="back"/>
  <text x="1487.95" y="3595" class="answer" text-anchor="middle">amended</text>
  <path d="M 2125.99 3683 L 2746.33 3683" class="send"/>
  <rect x="2205.03" y="3664" width="462.25" height="16" rx="2" class="sheet"/>
  <text x="2436.16" y="3676" class="said" text-anchor="middle">Read(body=render(…), outcome=render(…), untrusted=inside.untrusted)</text>
  <path d="M 2746.33 3717 L 2125.99 3717" class="back"/>
  <text x="2436.16" y="3710" class="answer" text-anchor="middle">read</text>
  <path d="M 2125.99 3777 L 2746.33 3777" class="send"/>
  <rect x="2215.16" y="3758" width="442" height="16" rx="2" class="sheet"/>
  <text x="2436.16" y="3770" class="said" text-anchor="middle">Read(body=context.text, outcome=citable.summary, untrusted=True)</text>
  <path d="M 2746.33 3811 L 2125.99 3811" class="back"/>
  <text x="2436.16" y="3804" class="answer" text-anchor="middle">read</text>
  <path d="M 2125.99 3877 L 2842.49 3877" class="send"/>
  <rect x="2418.49" y="3858" width="131.5" height="16" rx="2" class="sheet"/>
  <text x="2484.24" y="3870" class="said" text-anchor="middle">told(result, read)</text>
  <path d="M 2125.99 3911 L 2938.64 3911" class="send"/>
  <rect x="2412.57" y="3892" width="239.5" height="16" rx="2" class="sheet"/>
  <text x="2532.32" y="3904" class="said" text-anchor="middle">used(call, result, read, tuple(…))</text>
  <path d="M 2115.99 3977 L 305.235 3977" class="back"/>
  <text x="1210.62" y="3970" class="answer" text-anchor="middle">AgentState</text>
  <path d="M 305.235 4075 L 3539.16 4075" class="send"/>
  <rect x="1873.32" y="4056" width="97.75" height="16" rx="2" class="sheet"/>
  <text x="1922.2" y="4068" class="said" text-anchor="middle">answer(state)</text>
  <path d="M 3539.16 4109 L 305.235 4109" class="back"/>
  <text x="1922.2" y="4102" class="answer" text-anchor="middle">AgentState</text>
  <path d="M 295.235 4143 L 68.735 4143" class="back"/>
  <text x="181.985" y="4136" class="answer" text-anchor="middle">Iterator[AgentState]</text>
</svg>
