<svg xmlns="http://www.w3.org/2000/svg" viewBox="0 0 1456.78 951" width="1456.78" height="951" role="img" aria-label="A UML sequence diagram of turn: 7 messages between cora.frontends.react.api, agent: Agent, runner: LangGraphRunner, on_step: Callable, conversations: SqliteConversations. Generated by scripts/gen_session_maps.py.">
  <style>
    text { font: 13px/1.4 -apple-system, "Segoe UI", Roboto, sans-serif; fill: #202124 }
    .role { font-weight: 600 }
    .kind { font-size: 11.5px; fill: #5f6368 }
    .head { fill: #f2f8fd; stroke: #2b7fc4; stroke-width: 1.4 }
    .life { stroke: #9aa0a6; stroke-width: 1.1; stroke-dasharray: 5 5 }
    .bar { fill: #ffffff; stroke: #2b7fc4; stroke-width: 1.1 }
    .send { stroke: #202124; stroke-width: 1.3; fill: none; marker-end: url(#sent) }
    .back { stroke: #6b7280; stroke-width: 1.1; fill: none;
            stroke-dasharray: 6 4; marker-end: url(#answered) }
    .said { font-size: 12.5px }
    .sheet { fill: #f8f9fa; stroke: none }
    .answer { font-size: 11.5px; fill: #6b7280; font-style: italic }
    .frame { fill: none; stroke: #9aa0a6; stroke-width: 1.1 }
    .tab { fill: #f8f9fa; stroke: #9aa0a6; stroke-width: 1.1 }
    .operator { font-size: 11px; font-weight: 600; fill: #5f6368;
                letter-spacing: .03em }
    .guard { font-size: 11.5px; fill: #14425f; font-style: italic }
    .split { stroke: #9aa0a6; stroke-width: 1; stroke-dasharray: 4 4; fill: none }
    @media (prefers-color-scheme: dark) {
      text { fill: #e8eaed }
      .kind { fill: #9aa0a6 }
      .head { fill: #10283a; stroke: #6fb6ea }
      .bar { fill: #303134; stroke: #6fb6ea }
      .send { stroke: #e8eaed }
      .sheet { fill: #2b2c2f }
      .back { stroke: #bdc1c6 }
      .answer { fill: #bdc1c6 }
      .frame, .split { stroke: #bdc1c6 }
      .tab { fill: #2b2c2f; stroke: #bdc1c6 }
      .operator { fill: #bdc1c6 }
      .guard { fill: #cfe6f7 }
    }
  </style>
  <defs><marker id="sent" viewBox="0 0 10 10" refX="9" refY="5" markerWidth="8" markerHeight="8" orient="auto-start-reverse"><path d="M 0 1 L 9 5 L 0 9 z" fill="context-stroke"/></marker><marker id="answered" viewBox="0 0 10 10" refX="9" refY="5" markerWidth="9" markerHeight="9" orient="auto-start-reverse"><path d="M 0 1 L 9 5 L 0 9" fill="none" stroke="context-stroke" stroke-width="1.4"/></marker></defs>
  <rect x="21" y="299" width="1414.78" height="93" rx="2" class="frame"/>
  <rect x="21" y="299" width="47.52" height="19" rx="2" class="tab"/>
  <text x="31" y="313" class="operator" text-anchor="start">loop</text>
  <text x="80.52" y="332" class="guard" text-anchor="start">[steps[reported:]]</text>
  <rect x="12" y="252" width="1432.78" height="172" rx="2" class="frame"/>
  <rect x="12" y="252" width="47.52" height="19" rx="2" class="tab"/>
  <text x="22" y="266" class="operator" text-anchor="start">loop</text>
  <text x="71.52" y="285" class="guard" text-anchor="start">[states]</text>
  <rect x="30" y="704" width="1396.78" height="119" rx="2" class="frame"/>
  <rect x="30" y="704" width="41.14" height="19" rx="2" class="tab"/>
  <text x="40" y="718" class="operator" text-anchor="start">alt</text>
  <text x="83.14" y="737" class="guard" text-anchor="start">[conversations is None]</text>
  <path d="M 30 749 L 1426.78 749" class="split"/>
  <text x="83.14" y="763" class="guard" text-anchor="start">[else]</text>
  <rect x="21" y="585" width="1414.78" height="270" rx="2" class="frame"/>
  <rect x="21" y="585" width="41.14" height="19" rx="2" class="tab"/>
  <text x="31" y="599" class="operator" text-anchor="start">alt</text>
  <text x="74.14" y="618" class="guard" text-anchor="start">[not answer.strip()]</text>
  <path d="M 21 630 L 1435.78 630" class="split"/>
  <text x="74.14" y="644" class="guard" text-anchor="start">[else]</text>
  <rect x="12" y="512" width="1432.78" height="375" rx="2" class="frame"/>
  <rect x="12" y="512" width="41.14" height="19" rx="2" class="tab"/>
  <text x="22" y="526" class="operator" text-anchor="start">alt</text>
  <text x="65.14" y="545" class="guard" text-anchor="start">[waiting is not None]</text>
  <path d="M 12 557 L 1444.78 557" class="split"/>
  <text x="65.14" y="571" class="guard" text-anchor="start">[else]</text>
  <rect x="24" y="24" width="216.96" height="46" rx="3" class="head"/>
  <text x="132.48" y="44" class="role" text-anchor="middle">cora.frontends.react.api</text>
  <path d="M 132.48 70 L 132.48 941" class="life"/>
  <rect x="484.495" y="24" width="79.47" height="46" rx="3" class="head"/>
  <text x="524.23" y="44" class="role" text-anchor="middle">agent</text>
  <text x="524.23" y="60" class="kind" text-anchor="middle">: Agent</text>
  <path d="M 524.23 70 L 524.23 941" class="life"/>
  <rect x="966.695" y="24" width="141.57" height="46" rx="3" class="head"/>
  <text x="1037.48" y="44" class="role" text-anchor="middle">runner</text>
  <text x="1037.48" y="60" class="kind" text-anchor="middle">: LangGraphRunner</text>
  <path d="M 1037.48 70 L 1037.48 941" class="life"/>
  <rect x="1138.27" y="24" width="98.1" height="46" rx="3" class="head"/>
  <text x="1187.32" y="44" class="role" text-anchor="middle">on_step</text>
  <text x="1187.32" y="60" class="kind" text-anchor="middle">: Callable</text>
  <path d="M 1187.32 70 L 1187.32 941" class="life"/>
  <rect x="1266.37" y="24" width="166.41" height="46" rx="3" class="head"/>
  <text x="1349.57" y="44" class="role" text-anchor="middle">conversations</text>
  <text x="1349.57" y="60" class="kind" text-anchor="middle">: SqliteConversations</text>
  <path d="M 1349.57 70 L 1349.57 941" class="life"/>
  <rect x="1032.48" y="138" width="10" height="34" rx="1" class="bar"/>
  <rect x="1032.48" y="444" width="10" height="34" rx="1" class="bar"/>
  <rect x="519.23" y="104" width="10" height="803" rx="1" class="bar"/>
  <rect x="519.23" y="206" width="10" height="14" rx="1" class="bar"/>
  <rect x="1182.32" y="346" width="10" height="14" rx="1" class="bar"/>
  <rect x="519.23" y="658" width="10" height="14" rx="1" class="bar"/>
  <rect x="1344.57" y="777" width="10" height="14" rx="1" class="bar"/>
  <path d="M 137.48 104 L 519.23 104" class="send"/>
  <text x="328.355" y="97" class="said" text-anchor="middle">answer(question, thread_id, on_step, on_text, scopes)</text>
  <path d="M 529.23 138 L 1032.48 138" class="send"/>
  <text x="780.855" y="131" class="said" text-anchor="middle">run({'question': question, 'scopes': list(scopes)}, thread_id, on_text)</text>
  <path d="M 1032.48 172 L 529.23 172" class="back"/>
  <text x="780.855" y="165" class="answer" text-anchor="middle">Iterator[AgentState]</text>
  <path d="M 529.23 206 L 555.23 206 L 555.23 224 L 534.23 224" class="send"/>
  <text x="565.23" y="211" class="said" text-anchor="start">_turn(run(…), question, thread_id, on_step)</text>
  <path d="M 529.23 346 L 1182.32 346" class="send"/>
  <text x="855.773" y="339" class="said" text-anchor="middle">on_step(step)</text>
  <path d="M 529.23 444 L 1032.48 444" class="send"/>
  <text x="780.855" y="437" class="said" text-anchor="middle">pending(thread_id)</text>
  <path d="M 1032.48 478 L 529.23 478" class="back"/>
  <text x="780.855" y="471" class="answer" text-anchor="middle">waiting</text>
  <path d="M 529.23 658 L 555.23 658 L 555.23 676 L 534.23 676" class="send"/>
  <text x="565.23" y="663" class="said" text-anchor="start">_record(thread_id, Turn(…))</text>
  <path d="M 529.23 777 L 1344.57 777" class="send"/>
  <text x="936.9" y="770" class="said" text-anchor="middle">record(thread_id, turn)</text>
  <path d="M 519.23 907 L 137.48 907" class="back"/>
  <text x="328.355" y="900" class="answer" text-anchor="middle">ChatResult</text>
</svg>
